<?xml version="1.0" encoding="iso-8859-1"?>
<!-- Generator: Adobe Illustrator 18.1.1, SVG Export Plug-In . SVG Version: 6.00 Build 0)  -->
<svg version="1.1" id="Layer_1" xmlns="http://www.w3.org/2000/svg" xmlns:xlink="http://www.w3.org/1999/xlink" x="0px" y="0px"
	 viewBox="0 0 1001.869 329.671" style="enable-background:new 0 0 1001.869 329.671;" xml:space="preserve">
<rect x="1190" y="-235.164" width="1126" height="800"/>
<g>
	<path style="fill:#4E8373;" d="M816.44-375.016c-0.024-0.038-0.049-0.074-0.076-0.11c-2.517-3.476-5.27-6.839-8.183-9.996
		c-0.903-0.98-2.425-1.062-3.427-0.183c-22.888,20.034-49.791,70.944-89.642,169.775l-3.944-9.263
		c-0.301-0.709-0.917-1.235-1.664-1.422c-0.746-0.189-1.538-0.014-2.139,0.468c-14.504,11.654-15.61,26.282-16.679,40.429
		c-0.497,6.576-0.967,12.787-2.775,18.515c-0.376,1.191,0.201,2.475,1.34,2.985c1.14,0.514,2.481,0.086,3.12-0.988
		c4.296-7.234,5.32-14.503,6.311-21.531c0.255-1.804,0.518-3.669,0.808-5.379c0.394-1.762,0.672-3.576,0.943-5.331
		c0.883-5.738,1.723-11.203,6.454-15.255l4.366,18.464c0.251,1.06,1.168,1.829,2.255,1.89c1.081,0.055,2.085-0.599,2.453-1.625
		c26.69-74.381,54.476-129.033,89.845-176.615c18.801,28.099,25.158,56.704,19.429,87.338
		c-6.026,32.286-22.641,62.579-50.799,92.617c-10.681,11.452-22.36,22.382-33.653,32.954c-4.902,4.589-9.971,9.332-14.896,14.061
		c-0.886,0.85-1.009,2.225-0.287,3.22c0.477,0.657,1.226,1.014,1.991,1.014c0.394,0,0.791-0.095,1.16-0.292
		c11.352-6.078,69.781-57.612,90.675-96.148C845.795-284.035,844.79-331.001,816.44-375.016z"/>
	<path style="fill:#95B5AB;" d="M790.157-279.992c-0.591-0.232-1.266,0.026-1.549,0.597l-0.772,1.55
		c-1.242,2.492-2.526,5.069-3.826,7.842c-19.282,44.093-42.346,78.361-70.513,104.763c-12.522,11.784-26.087,22.922-39.206,33.692
		c-8.825,7.246-17.95,14.737-26.667,22.352c-5.553,4.837-10.585,10.408-15.452,15.795c-2.062,2.283-4.194,4.643-6.332,6.91
		c-0.434,0.46-0.448,1.174-0.032,1.651c0.241,0.279,0.582,0.423,0.928,0.423c0.246,0,0.496-0.074,0.711-0.227
		c8.235-5.85,15.523-11.932,23.24-18.373c3.674-3.066,7.472-6.236,11.358-9.359c5.764-4.628,11.811-9.13,17.659-13.484
		c6.097-4.538,12.403-9.233,18.419-14.094c44.648-35.744,76.727-83.655,92.767-138.552
		C791.069-279.114,790.75-279.761,790.157-279.992z"/>
</g>
<g>
	<g>
		<path style="fill:#95B5AB;" d="M129.256,137.139c-0.294,0.725-0.793,1.347-1.437,1.791c-1.317,0.844-2.806,1.384-4.357,1.581
			c-2.255,0.458-3.741,0.711-4.51,0.813c0.762,3.844,1.169,5.689,1.17,5.586c0.713,2.512,1.425,5.945,2.238,10.25
			c1.794,10.249,3.642,18.876,5.544,25.881c0.306,1.336,0.544,2.688,0.711,4.048c-0.003,0.985-0.434,1.919-1.182,2.56
			c-0.785,0.71-1.812,1.094-2.871,1.071c-1.106-0.069-2.113-0.66-2.713-1.592c-0.648-0.858-1.197-1.787-1.635-2.769
			c-0.917-3.434-1.731-7.226-2.441-11.429s-1.625-9.276-2.64-15.374c-0.406-2.613-1.016-5.842-1.932-9.686
			c-0.916-3.844-1.476-6.406-1.781-7.585c-5.944,0.759-16.091,2.383-30.747,4.768l-8.712,1.472l-3.19,8.858l-4.22,12.033
			c-3.433,10.924-5.956,19.339-7.571,25.246c-0.261,1.321-0.884,2.544-1.799,3.532c-0.842,0.919-2.034,1.439-3.281,1.429
			c-1.018,0.03-2.015-0.298-2.816-0.927c-0.751-0.635-1.166-1.581-1.123-2.563c0.322-2.385,0.928-4.723,1.804-6.965
			c1.235-3.584,1.956-5.684,2.162-6.401s1.183-3.277,2.419-6.913s2.985-8.654,5.145-14.183c2.16-5.53,3.447-9.268,4.167-11.06
			c-5.125,1.222-8.969,2.138-11.429,2.851c-2.315,0.677-4.68,1.171-7.072,1.475c-1.008,0.062-1.969-0.431-2.508-1.285
			c-0.414-0.805-0.591-1.712-0.508-2.614c-0.115-0.937,0.23-1.871,0.926-2.509c0.913-0.577,1.919-0.992,2.973-1.225
			c3.844-0.916,7.841-1.832,12.146-2.696c4.305-0.864,7.175-1.526,8.764-1.779c1.029-2.919,1.75-5.377,2.266-7.374
			c0.515-1.997,0.927-2.919,1.596-5.121s1.39-4.353,2.214-7.272l2.266-7.681c3.812-13.11,6.026-20.637,6.644-22.686
			c0.347-1.056,0.777-2.083,1.286-3.072c0.311-0.744,1.04-1.228,1.846-1.227c1.851-0.019,3.69,0.296,5.429,0.931
			c0.356-0.402,0.683-0.829,0.975-1.279c0.374-0.563,0.886-1.021,1.488-1.33c0.696-0.296,1.448-0.435,2.204-0.406
			c1.793,0.003,3.89,2.055,6.241,6.209c2.611,4.684,4.88,9.55,6.791,14.561c1.327,3.332,2.959,8.253,5.1,14.814
			c2.142,6.561,3.313,10.918,3.873,13.019c1.305-0.144,2.592-0.416,3.844-0.814l2.05-0.663c0.599-0.271,1.153-0.633,1.641-1.073
			c0.51-0.426,1.06-0.802,1.641-1.125c0.529-0.282,1.163-0.281,1.691,0.003c1.367,0.719,2.141,2.212,1.941,3.743
			C129.865,135.743,129.621,136.471,129.256,137.139z M106.938,124.553c-1.63-5.741-3.109-10.251-4.486-14.045
			c-1.518-3.94-3.327-7.762-5.413-11.433c-1.246-2.814-3.076-5.332-5.368-7.386l-1.646,3.891c-1.692,3.308-3.153,6.729-4.371,10.24
			c-2.436,7.169-6.263,19.117-11.481,35.845l17.577-2.995l14.451-2.232l4.048-0.557c-0.458-1.794-1.477-5.535-3.107-11.327
			L106.938,124.553z"/>
		<path style="fill:#4E8373;" d="M280.771,144.346c-2.528,0.785-5.145,1.246-7.789,1.371l-5.994-0.009
			c-0.006,3.689-0.371,7.838-0.737,12.397s-0.679,8.299-0.94,11.27l-0.521,5.584l-0.368,5.737l-1.098,13.831
			c-0.522,6.096-2.473,9.115-5.957,9.11c-1.332-0.002-2.61-1.541-3.835-4.566c-1.096-2.352-1.735-4.892-1.884-7.483
			c0.259-1.051,0.751-2.031,1.439-2.867c1.024-1.621,1.642-3.466,1.802-5.377c0.466-3.329,1.039-8.913,1.665-16.648
			c0.627-7.735,0.996-14.292,1.26-19.569c-4.663,0.351-9.684,0.856-15.065,1.565l-16.141,1.614
			c-8.403,0.807-14.962,1.36-19.778,1.557c-0.474,7.94-1.001,17.571-1.633,28.893s-1.003,18.596-1.006,21.106
			c0.037,1.258,0.189,2.51,0.455,3.741c0.26,1.179,0.412,2.38,0.455,3.587c-0.002,1.076-0.823,2.15-2.413,3.224
			c-1.129,0.884-2.474,1.448-3.896,1.633c-1.178-0.002-2.151-0.772-2.917-2.361c-0.789-1.592-1.19-3.348-1.17-5.125
			c0.002-1.076,0.004-2.818,0.367-5.123c0.362-2.305,0.417-4.559,0.522-6.352c0.517-3.278,0.778-5.891,0.935-7.94
			c0.575-7.018,1.098-13.831,1.467-20.491c0.369-6.66,0.581-11.014,0.738-13.268c-7.053,1.261-14.202,1.901-21.367,1.913
			c-2.073,0.037-4.109-0.556-5.838-1.7c-1.654-1.161-2.568-3.113-2.4-5.127c-0.112-1.275,0.318-2.539,1.184-3.482
			c1.366-0.975,3.052-1.393,4.715-1.171l9.529,0.015c6.199,0.266,11.271,0.376,15.062,0.382c0.631-10.245,0.951-18.288,0.96-24.385
			c0.022-13.884,0.041-26.333-0.3-37.349l0.01-6.609c-0.046-1.709,0.716-3.341,2.056-4.403c1.339-1.109,3.029-1.706,4.767-1.683
			c1.332,0.002,2.201,1.028,2.659,3.027c0.512,2.234,0.75,4.523,0.707,6.815c-0.004,2.664-0.269,8.043-0.896,16.188
			c-0.739,13.883-1.109,21.208-1.11,22.028l-0.962,25.615c10.246,0.016,27.105-1.751,51.24-4.582
			c0.466-3.432,1.3-12.55,2.553-27.252c0.49-7.787,0.909-13.473,1.256-17.058l1.098-13.985c1.565-17.724,2.248-28.533,2.255-33.093
			c-0.043-1.464,0.628-2.858,1.799-3.737c1.152-0.951,2.607-1.457,4.101-1.428c2.152,0.003,3.224,2.106,3.218,6.255
			c-0.004,2.664-0.579,9.631-1.826,21.002c-1.304,14.855-2.034,23.103-2.191,24.793c-0.732,9.169-1.411,17.98-2.09,26.33
			c-0.679,8.35-1.149,14.036-1.358,16.905c1.971-0.314,3.898-0.862,5.741-1.63c1.644-0.614,3.372-0.974,5.125-1.068
			c1.583,0.193,3.041,0.961,4.095,2.158c1.586,1.437,2.353,2.463,2.352,3.078C284.924,142.15,283.538,143.531,280.771,144.346z"/>
		<path style="fill:#4E8373;" d="M413.35,151.009c-6.747,11.001-15.907,20.324-26.786,27.265
			c-9.789,6.513-21.253,10.053-33.01,10.195c-6.34,0.034-12.606-1.359-18.335-4.076c-5.668-2.624-10.502-6.763-13.968-11.959
			c-3.686-5.642-5.554-12.279-5.35-19.016c0.285-13.663,3.688-27.081,9.949-39.228c7.028-14.173,16.324-27.103,27.52-38.279
			c0.968-0.941,2.12-1.672,3.385-2.146c1.229-0.368,2.509-0.539,3.792-0.506c1.213,0.017,2.406,0.317,3.482,0.876
			c1.126,0.617,1.689,1.335,1.687,2.154c-0.067,0.734-0.277,1.447-0.618,2.1c-0.411,0.87-0.668,1.433-0.822,1.689
			c0.876-0.022,1.749-0.106,2.613-0.252c1.987-0.261,3.992-0.36,5.995-0.298c4.738,0.171,9.452,0.761,14.086,1.764
			c4.442,0.732,8.799,1.906,13.008,3.504c6.971,2.868,13.086,7.483,17.757,13.399c3.895,4.998,6.028,11.143,6.069,17.48
			C423.712,128.202,420.088,140.448,413.35,151.009z M411.274,102.488c-3.774-4.787-8.705-8.532-14.328-10.884
			c-4.211-1.692-8.73-2.485-13.266-2.326c-1.691-0.003-3.945-0.006-6.814,0.348l-6.66-0.01c-5.738-0.009-8.605-1.192-8.601-3.6
			c-0.079-0.784-0.078-1.573,0.004-2.357c0.037-0.495,0.159-0.98,0.361-1.434c-2.234-0.106-4.422,0.663-6.1,2.142
			c-9.359,9.454-17.05,20.424-22.747,32.446c-5.099,10.46-7.845,21.91-8.045,33.545c-0.779,8.147,1.99,16.235,7.599,22.196
			c5.828,4.888,13.298,7.372,20.892,6.949c10.581,0.034,20.963-2.877,29.984-8.406c9.511-5.589,17.578-13.333,23.551-22.608
			c5.755-8.597,8.87-18.69,8.96-29.035C416.348,113.429,414.667,107.475,411.274,102.488z"/>
		<path style="fill:#4E8373;" d="M552.127,190.982c-1.264,1.049-2.87,1.593-4.511,1.53c-2.357-0.004-4.556-2.518-6.546-7.541
			c-2.014-5.001-3.3-10.265-3.818-15.632c-0.505-4.56-0.95-15.115-1.385-31.766c-0.245-6.917-0.444-11.221-0.543-12.911
			c-7.485,18.614-16.997,36.347-28.363,52.879c-10.578,15.353-20.529,22.766-29.904,22.752c-5.277-0.39-9.915-3.643-12.078-8.472
			c-3.916-7.047-6.541-14.737-7.752-22.708c-1.859-10.33-2.751-20.811-2.666-31.307c0.014-9.222,0.594-19.621,1.688-31.3
			c0.648-8.515,2.084-16.951,4.292-25.2c0.38-1.315,1.087-2.513,2.055-3.481c0.788-0.869,1.903-1.369,3.076-1.378
			c2.971,0.005,4.507,1.185,4.503,3.44c-0.001,0.359-1.134,4.66-3.453,12.905c-2.867,15.191-4.025,30.655-3.453,46.104
			c-0.368,12.463,1.009,24.915,4.092,36.996c2.803,9.636,6.74,14.458,11.915,14.466c5.174,0.008,11.021-4.081,17.951-12.268
			c7.603-9.056,14.262-18.865,19.873-29.274c5.484-9.548,10.095-19.572,13.777-29.949c2.347-9.336,3.633-18.906,3.836-28.53
			c0.033-2.601,0.329-5.193,0.883-7.735c1.066-1.252,2.667-1.916,4.306-1.786c2.152,0.003,3.223,2.977,3.214,8.817
			c-0.011,7.07-0.032,20.493,0.552,40.218c0.584,19.725,0.923,32.227,1.478,37.504c0.307,3.535,1.184,6.996,2.597,10.251
			c1.087,2.241,2.443,4.342,4.038,6.257c1.432,1.676,2.147,2.753,2.147,3.231C553.977,188.6,553.309,190.043,552.127,190.982z"/>
		<path style="fill:#4E8373;" d="M664.708,175.891c-4.322,6.087-10.133,10.964-16.878,14.165
			c-7.692,3.732-16.155,5.597-24.703,5.443c-6.222,0.171-12.439-0.476-18.492-1.925c-4.558-1.237-6.809-3.033-6.806-5.134
			c0.403-2.171,1.3-4.221,2.622-5.99c1.746-2.815,3.081-4.247,4.054-4.246c0.973,0.002,2.151,0.311,2.15,0.926
			c-0.054,0.47-0.272,0.905-0.617,1.229c-0.397,0.376-0.636,0.888-0.668,1.433c-0.001,0.359,0.767,0.923,2.252,1.643
			c2.212,0.942,4.535,1.6,6.913,1.958c3.735,0.674,7.526,0.989,11.321,0.94c6.426,0.146,12.792-1.268,18.553-4.121
			c4.899-2.319,9.133-5.837,12.312-10.227c2.647-3.528,4.155-7.779,4.323-12.187c-0.107-5.383-2.884-10.361-7.408-13.281
			c-7.396-4.924-15.539-8.622-24.113-10.95c-10.651-3.5-18.844-6.382-24.68-8.748c-5.187-1.947-9.948-4.877-14.024-8.629
			c-3.503-3.187-5.473-7.722-5.411-12.458c0.673-7.821,4.773-14.943,11.199-19.451c8.258-6.87,17.715-12.153,27.895-15.582
			c9.667-3.749,19.921-5.762,30.288-5.947c4.816,0.008,7.376,0.934,7.732,2.881c0.385,2.13,0.57,4.292,0.553,6.456
			c-0.003,1.793-0.67,2.663-2.002,2.661c-0.723-0.035-1.427-0.247-2.048-0.618c-0.768-0.411-1.485-0.72-2.099-0.977
			c-0.819-0.298-1.657-0.539-2.509-0.721c-1.346-0.29-2.722-0.413-4.098-0.365c-7.703,0.283-15.298,1.9-22.447,4.781
			c-8.104,2.902-15.752,6.944-22.715,12.004c-6.411,4.755-9.595,9.361-9.602,13.818c-0.015,3.602,1.576,7.022,4.34,9.331
			c3.485,2.936,7.474,5.216,11.773,6.73c5.12,1.852,11.828,4.168,20.789,6.949c10.391,2.588,20.25,6.972,29.131,12.956
			c5.846,3.973,9.361,10.57,9.399,17.639C670.773,164.658,668.579,170.814,664.708,175.891z"/>
		<path style="fill:#4E8373;" d="M794.631,79.06c-4.918,2.438-10.07,4.369-15.379,5.765c-6.868,1.987-12.557,3.413-16.964,4.226
			c-6.919,1.321-13.888,2.386-20.908,3.144c-7.02,0.758-11.529,1.212-13.527,1.311c-0.011,6.968,0.234,14.089,0.479,21.467
			s0.39,12.399,0.539,15.371c4.663-0.607,11.633-1.724,20.959-3.4l6.816-1.065c6.343-0.786,12.361-3.253,17.43-7.145
			c1.296-1.247,2.91-2.113,4.666-2.503c0.89,0.032,1.692,0.543,2.098,1.335c0.489,0.841,0.753,1.795,0.764,2.768
			c-0.003,2.203-2.415,4.556-7.286,7.11c-5.048,2.637-10.453,4.527-16.045,5.61c-5.125,1.068-10.25,2.085-16.502,3.048
			l-12.042,1.774c-0.065,15.402,2.033,30.736,6.23,45.555c3.322,1.202,6.752,2.082,10.242,2.629
			c4.291,0.624,8.625,0.905,12.961,0.84c5.09,0.008,10.158-0.673,15.065-2.026c4.109-1.076,8.02-2.799,11.586-5.105
			c2.923-2.045,4.361-3.938,4.364-5.731c0.01-0.963-0.162-1.92-0.508-2.819c-0.395-0.963-0.874-1.889-1.43-2.769l-1.176-1.693
			c-0.432-0.551-0.713-1.205-0.817-1.897c0.002-1.178,1.335-1.791,3.948-1.787c1.989-0.034,3.881,0.859,5.12,2.416
			c1.267,1.412,1.991,3.229,2.041,5.126c-0.202,4.276-2.043,8.309-5.141,11.263c-3.945,4.119-8.814,7.237-14.206,9.097
			c-6.276,2.412-12.956,3.602-19.679,3.504c-5.999,0.072-11.994-0.332-17.929-1.206c-3.906-0.428-7.587-2.043-10.547-4.627
			c-3.547-4.947-5.632-10.79-6.019-16.865c-1.115-7.994-2.071-18.703-2.87-32.127c-2.515,0.651-5.064,1.16-7.636,1.525
			c-2.119,0.342-4.259,0.545-6.405,0.605c-1.294,0.046-2.551-0.437-3.482-1.337c-0.9-0.869-1.384-2.082-1.327-3.332
			c-0.007-0.737,0.134-1.469,0.413-2.151c0.283-0.543,0.789-0.935,1.385-1.074c3.946-0.455,6.815-0.758,8.608-0.857l7.686-0.91
			c-0.42-15.405-0.878-27.957-1.376-37.658c-1.81-0.003-3.245-0.005-4.303-0.007l-8.248-0.013c-0.928,0.049-1.835-0.286-2.509-0.926
			c-0.533-0.511-0.845-1.21-0.868-1.948c0.005-2.92,1.903-4.813,5.747-5.729l5.483-0.811c1.442-0.231,2.896-0.382,4.355-0.454
			c1.865-2.296,4.632-3.674,7.588-3.779c0.461,0.001,0.819,0.411,1.125,1.18c0.249,0.533,0.404,1.105,0.458,1.691
			c7.89-0.363,17.284-1.237,28.182-2.62c7.174-0.979,18.244-3.233,33.209-6.762l6.662-1.424c1.178,0.002,1.792,0.72,1.79,2.155
			S796.682,78.038,794.631,79.06z"/>
	</g>
	<g>
		<path style="fill:#4E8373;" d="M941.16,46.868c-0.02-0.032-0.042-0.063-0.064-0.093c-2.123-2.932-4.445-5.769-6.903-8.432
			c-0.762-0.827-2.045-0.896-2.891-0.154c-19.307,16.899-42,59.843-75.616,143.209l-3.327-7.813c-0.254-0.598-0.774-1.042-1.404-1.2
			c-0.629-0.159-1.298-0.012-1.804,0.395c-12.235,9.831-13.168,22.17-14.069,34.103c-0.419,5.547-0.815,10.786-2.341,15.618
			c-0.317,1.005,0.169,2.088,1.13,2.518c0.961,0.434,2.093,0.073,2.632-0.834c3.623-6.102,4.488-12.234,5.323-18.162
			c0.215-1.521,0.437-3.095,0.682-4.537c0.332-1.486,0.567-3.017,0.795-4.497c0.745-4.84,1.454-9.45,5.444-12.868l3.683,15.575
			c0.212,0.894,0.986,1.543,1.902,1.594c0.912,0.047,1.759-0.505,2.07-1.371c22.514-62.743,45.952-108.842,75.787-148.979
			c15.859,23.702,21.221,47.831,16.389,73.672c-5.083,27.234-19.098,52.787-42.85,78.125c-9.01,9.66-18.861,18.88-28.387,27.797
			c-4.135,3.871-8.411,7.872-12.565,11.861c-0.748,0.717-0.851,1.877-0.242,2.716c0.402,0.554,1.034,0.855,1.68,0.855
			c0.332,0,0.668-0.08,0.979-0.246c9.576-5.127,58.862-48.597,76.487-81.104C965.922,123.612,965.074,83.995,941.16,46.868z"/>
		<path style="fill:#95B5AB;" d="M918.99,127.022c-0.498-0.196-1.068,0.022-1.307,0.504l-0.651,1.308
			c-1.047,2.102-2.13,4.276-3.227,6.615c-16.265,37.194-35.72,66.1-59.48,88.37c-10.562,9.94-22.005,19.335-33.071,28.42
			c-7.444,6.112-15.141,12.431-22.494,18.855c-4.684,4.08-8.928,8.78-13.034,13.324c-1.739,1.926-3.537,3.916-5.341,5.829
			c-0.366,0.388-0.378,0.991-0.027,1.393c0.204,0.235,0.491,0.357,0.783,0.357c0.208,0,0.418-0.063,0.6-0.191
			c6.946-4.934,13.094-10.065,19.603-15.498c3.099-2.586,6.303-5.26,9.581-7.894c4.862-3.904,9.963-7.702,14.896-11.374
			c5.143-3.828,10.462-7.788,15.537-11.888c37.662-30.151,64.721-70.565,78.251-116.872
			C919.759,127.763,919.491,127.218,918.99,127.022z"/>
	</g>
	<g>
		<g>
			<path style="fill:#95B5AB;" d="M137.543,236.541l-0.061,38.791l-5.018-0.008l0.061-38.791L137.543,236.541z"/>
			<path style="fill:#95B5AB;" d="M197.462,236.635l4.582,0.007l15.958,27.713l0.044-27.688l5.043,0.008l-0.061,38.791l-4.388-0.007
				l-16.176-28.052l-0.044,28.026l-5.019-0.007L197.462,236.635z"/>
			<path style="fill:#95B5AB;" d="M294.153,241.805l-0.053,33.773l-5.043-0.008l0.053-33.773l-9.043-0.014l0.008-5.018l23.13,0.036
				l-0.008,5.018L294.153,241.805z"/>
			<path style="fill:#95B5AB;" d="M381.089,236.922l-0.008,5.018l-15.881-0.024l-0.018,11.856l15.881,0.024l-0.008,5.019
				l-15.881-0.025l-0.018,11.856l15.881,0.024l-0.008,5.043l-20.9-0.032l0.061-38.791L381.089,236.922z"/>
			<path style="fill:#95B5AB;" d="M449.451,263.408l-4.582-0.007l-0.019,12.413l-5.019-0.008l0.061-38.791l11.007,0.017
				c3.119,0.424,5.752,1.714,7.898,3.867c2.566,2.59,3.845,5.696,3.84,9.316c-0.006,3.653-1.296,6.771-3.87,9.353
				c-1.781,1.775-3.14,2.776-4.077,2.999l8.586,13.275l-6.086-0.009L449.451,263.408z M444.903,242.065l-0.025,16.293l4.582,0.007
				c2.231,0.003,4.143-0.789,5.738-2.38c1.594-1.589,2.394-3.515,2.398-5.779c0.003-2.247-0.79-4.162-2.38-5.75
				c-1.589-1.586-3.5-2.382-5.73-2.385L444.903,242.065z"/>
			<path style="fill:#95B5AB;" d="M525.921,237.148l-0.06,38.792l-5.018-0.008l0.06-38.791L525.921,237.148z"/>
			<path style="fill:#95B5AB;" d="M619.121,242.604c3.873,3.885,5.805,8.568,5.797,14.047c-0.009,5.479-1.956,10.155-5.841,14.029
				c-3.886,3.873-8.568,5.804-14.047,5.796c-5.479-0.009-10.156-1.956-14.029-5.841c-3.874-3.886-5.805-8.567-5.796-14.046
				c0.008-5.48,1.954-10.156,5.84-14.03c3.885-3.873,8.568-5.804,14.047-5.796C610.571,236.772,615.247,238.718,619.121,242.604z
				 M605.084,241.83c-4.089-0.006-7.579,1.43-10.468,4.311c-2.89,2.881-4.338,6.367-4.344,10.456
				c-0.007,4.089,1.434,7.582,4.322,10.479c2.889,2.898,6.371,4.351,10.444,4.357c4.088,0.006,7.578-1.434,10.467-4.324
				c2.89-2.888,4.339-6.377,4.346-10.466c0.006-4.089-1.432-7.579-4.312-10.468C612.658,243.285,609.172,241.836,605.084,241.83z"/>
			<path style="fill:#95B5AB;" d="M693.336,263.79l-4.583-0.007l-0.019,12.412l-5.018-0.008l0.06-38.791l11.007,0.017
				c3.119,0.425,5.752,1.714,7.898,3.868c2.566,2.59,3.846,5.695,3.84,9.315c-0.006,3.654-1.295,6.771-3.869,9.353
				c-1.782,1.776-3.141,2.776-4.078,3l8.586,13.274l-6.085-0.009L693.336,263.79z M688.786,242.446l-0.026,16.293l4.583,0.007
				c2.231,0.004,4.144-0.789,5.738-2.379c1.595-1.589,2.395-3.515,2.398-5.779c0.004-2.246-0.789-4.162-2.38-5.749
				c-1.589-1.587-3.499-2.382-5.729-2.386L688.786,242.446z"/>
		</g>
	</g>
</g>
<g>
	<g>
		<path style="fill:#DCE6E3;" d="M1405.329,129.977c-0.283,0.699-0.765,1.299-1.386,1.726c-1.27,0.813-2.705,1.334-4.201,1.525
			c-2.174,0.441-3.607,0.686-4.348,0.783c0.735,3.705,1.127,5.484,1.128,5.385c0.688,2.421,1.374,5.731,2.158,9.881
			c1.73,9.881,3.511,18.197,5.344,24.95c0.295,1.288,0.524,2.591,0.685,3.903c-0.002,0.949-0.419,1.85-1.14,2.468
			c-0.757,0.685-1.747,1.054-2.767,1.033c-1.066-0.067-2.037-0.637-2.615-1.535c-0.625-0.827-1.154-1.723-1.576-2.67
			c-0.884-3.311-1.668-6.967-2.353-11.018c-0.685-4.051-1.567-8.942-2.545-14.821c-0.391-2.52-0.979-5.632-1.862-9.338
			c-0.883-3.706-1.423-6.176-1.717-7.312c-5.73,0.732-15.512,2.297-29.641,4.596l-8.398,1.419l-3.076,8.54l-4.068,11.6
			c-3.309,10.531-5.742,18.644-7.298,24.338c-0.252,1.274-0.852,2.453-1.734,3.405c-0.812,0.886-1.961,1.387-3.163,1.378
			c-0.982,0.029-1.942-0.287-2.715-0.893c-0.724-0.612-1.124-1.524-1.083-2.471c0.31-2.299,0.894-4.553,1.739-6.714
			c1.191-3.455,1.885-5.479,2.084-6.171c0.199-0.691,1.141-3.159,2.332-6.664s2.878-8.342,4.96-13.673
			c2.083-5.331,3.323-8.934,4.017-10.662c-4.941,1.178-8.646,2.061-11.018,2.749c-2.232,0.653-4.511,1.128-6.818,1.422
			c-0.972,0.059-1.899-0.415-2.418-1.239c-0.399-0.776-0.569-1.65-0.49-2.52c-0.111-0.903,0.222-1.804,0.893-2.419
			c0.88-0.557,1.85-0.956,2.866-1.181c3.706-0.883,7.559-1.766,11.71-2.599c4.15-0.833,6.917-1.471,8.448-1.715
			c0.992-2.814,1.687-5.183,2.184-7.109c0.497-1.925,0.893-2.814,1.539-4.937c0.645-2.123,1.34-4.196,2.135-7.01l2.185-7.405
			c3.675-12.638,5.81-19.895,6.406-21.87c0.335-1.018,0.749-2.008,1.239-2.961c0.3-0.717,1.002-1.184,1.78-1.183
			c1.784-0.019,3.558,0.285,5.234,0.897c0.344-0.387,0.658-0.799,0.94-1.233c0.36-0.543,0.854-0.985,1.434-1.282
			c0.671-0.286,1.396-0.42,2.124-0.392c1.729,0.003,3.75,1.981,6.016,5.986c2.517,4.516,4.705,9.207,6.547,14.037
			c1.279,3.212,2.852,7.956,4.917,14.281c2.064,6.325,3.194,10.525,3.734,12.551c1.258-0.138,2.499-0.401,3.705-0.784l1.977-0.639
			c0.578-0.261,1.111-0.61,1.582-1.035c0.492-0.41,1.022-0.773,1.582-1.084c0.51-0.271,1.121-0.27,1.63,0.003
			c1.317,0.693,2.064,2.133,1.871,3.608C1405.917,128.63,1405.682,129.332,1405.329,129.977z M1383.814,117.843
			c-1.572-5.534-2.997-9.883-4.325-13.54c-1.463-3.799-3.207-7.483-5.218-11.022c-1.201-2.713-2.965-5.14-5.175-7.12l-1.586,3.751
			c-1.631,3.189-3.039,6.487-4.214,9.871c-2.349,6.911-6.038,18.43-11.068,34.556l16.945-2.888l13.931-2.151l3.903-0.537
			c-0.442-1.729-1.424-5.336-2.996-10.92L1383.814,117.843z"/>
		<path style="fill:#DCE6E3;" d="M1551.396,136.924c-2.437,0.757-4.96,1.201-7.509,1.322l-5.779-0.009
			c-0.005,3.556-0.358,7.556-0.71,11.951c-0.353,4.395-0.655,8-0.906,10.864l-0.502,5.383l-0.354,5.531l-1.058,13.334
			c-0.503,5.877-2.384,8.788-5.743,8.782c-1.284-0.002-2.517-1.486-3.697-4.401c-1.057-2.268-1.673-4.716-1.816-7.214
			c0.249-1.014,0.724-1.958,1.387-2.764c0.987-1.563,1.583-3.341,1.737-5.183c0.449-3.21,1.001-8.592,1.605-16.049
			c0.604-7.457,0.96-13.778,1.215-18.865c-4.495,0.339-9.336,0.825-14.523,1.508l-15.56,1.556
			c-8.101,0.778-14.424,1.311-19.067,1.501c-0.457,7.655-0.965,16.939-1.575,27.854c-0.61,10.914-0.966,17.927-0.97,20.347
			c0.035,1.213,0.182,2.42,0.439,3.606c0.251,1.137,0.398,2.294,0.439,3.458c-0.002,1.037-0.793,2.073-2.326,3.108
			c-1.088,0.852-2.385,1.396-3.756,1.575c-1.136-0.002-2.073-0.744-2.812-2.276c-0.76-1.535-1.147-3.228-1.128-4.941
			c0.002-1.037,0.004-2.716,0.354-4.938c0.349-2.222,0.402-4.395,0.503-6.124c0.499-3.16,0.75-5.679,0.901-7.654
			c0.554-6.766,1.058-13.334,1.414-19.754c0.356-6.42,0.56-10.618,0.711-12.791c-6.799,1.216-13.692,1.833-20.599,1.845
			c-1.999,0.036-3.961-0.536-5.628-1.639c-1.595-1.119-2.475-3.001-2.314-4.943c-0.108-1.23,0.307-2.448,1.141-3.357
			c1.317-0.94,2.942-1.343,4.546-1.129l9.187,0.014c5.976,0.256,10.865,0.363,14.52,0.368c0.608-9.877,0.917-17.631,0.926-23.508
			c0.021-13.385,0.04-25.386-0.289-36.006l0.01-6.371c-0.044-1.648,0.69-3.221,1.982-4.244c1.291-1.069,2.92-1.644,4.596-1.623
			c1.284,0.002,2.122,0.991,2.564,2.918c0.494,2.154,0.723,4.36,0.681,6.57c-0.004,2.568-0.259,7.754-0.864,15.606
			c-0.712,13.384-1.069,20.446-1.07,21.236l-0.928,24.694c9.878,0.015,26.13-1.688,49.397-4.417
			c0.45-3.308,1.254-12.099,2.461-26.272c0.473-7.507,0.876-12.988,1.211-16.445l1.058-13.482
			c1.508-17.087,2.167-27.507,2.174-31.903c-0.041-1.411,0.605-2.755,1.734-3.603c1.111-0.917,2.513-1.405,3.953-1.377
			c2.074,0.003,3.109,2.03,3.102,6.03c-0.004,2.568-0.558,9.284-1.76,20.247c-1.257,14.321-1.961,22.272-2.112,23.901
			c-0.705,8.84-1.361,17.334-2.015,25.383s-1.108,13.531-1.31,16.297c1.9-0.303,3.758-0.831,5.534-1.572
			c1.585-0.592,3.251-0.939,4.941-1.029c1.526,0.186,2.932,0.927,3.948,2.081c1.529,1.385,2.268,2.374,2.267,2.967
			C1555.4,134.807,1554.064,136.138,1551.396,136.924z"/>
		<path style="fill:#DCE6E3;" d="M1679.208,143.347c-6.505,10.605-15.335,19.593-25.823,26.285
			c-9.437,6.279-20.489,9.692-31.823,9.828c-6.112,0.032-12.153-1.311-17.676-3.929c-5.464-2.53-10.124-6.519-13.465-11.529
			c-3.554-5.439-5.354-11.837-5.157-18.332c0.275-13.172,3.555-26.107,9.591-37.818c6.775-13.664,15.737-26.128,26.531-36.902
			c0.933-0.908,2.044-1.612,3.263-2.069c1.185-0.355,2.419-0.52,3.656-0.488c1.17,0.016,2.319,0.306,3.357,0.845
			c1.086,0.594,1.628,1.287,1.627,2.077c-0.064,0.707-0.267,1.395-0.596,2.024c-0.396,0.839-0.644,1.382-0.793,1.629
			c0.844-0.021,1.686-0.103,2.519-0.243c1.916-0.251,3.848-0.347,5.779-0.287c4.568,0.165,9.112,0.734,13.58,1.7
			c4.282,0.706,8.483,1.838,12.54,3.378c6.72,2.765,12.615,7.214,17.118,12.918c3.755,4.819,5.812,10.743,5.851,16.851
			C1689.198,121.36,1685.704,133.167,1679.208,143.347z M1677.206,96.572c-3.638-4.614-8.392-8.225-13.813-10.492
			c-4.06-1.631-8.416-2.395-12.789-2.243c-1.63-0.003-3.803-0.006-6.569,0.335l-6.421-0.01c-5.532-0.009-8.296-1.149-8.292-3.47
			c-0.076-0.755-0.075-1.517,0.004-2.272c0.035-0.477,0.153-0.945,0.348-1.382c-2.154-0.102-4.263,0.639-5.881,2.065
			c-9.023,9.114-16.437,19.69-21.929,31.279c-4.916,10.084-7.563,21.122-7.755,32.338c-0.751,7.854,1.918,15.652,7.326,21.397
			c5.618,4.712,12.82,7.107,20.141,6.699c10.201,0.033,20.209-2.773,28.906-8.104c9.169-5.388,16.946-12.854,22.704-21.795
			c5.548-8.288,8.551-18.018,8.638-27.991C1682.098,107.119,1680.478,101.379,1677.206,96.572z"/>
		<path style="fill:#DCE6E3;" d="M1812.994,181.883c-1.218,1.011-2.767,1.536-4.349,1.475c-2.272-0.004-4.392-2.427-6.311-7.27
			c-1.942-4.821-3.181-9.896-3.681-15.07c-0.487-4.396-0.916-14.572-1.335-30.624c-0.237-6.668-0.428-10.817-0.524-12.447
			c-7.216,17.944-16.386,35.04-27.343,50.977c-10.197,14.801-19.79,21.948-28.829,21.934c-5.087-0.376-9.558-3.512-11.643-8.168
			c-3.775-6.794-6.306-14.207-7.473-21.891c-1.792-9.959-2.652-20.063-2.571-30.181c0.014-8.89,0.573-18.915,1.628-30.175
			c0.624-8.208,2.009-16.341,4.137-24.293c0.366-1.268,1.047-2.422,1.981-3.355c0.76-0.838,1.835-1.319,2.965-1.329
			c2.865,0.004,4.345,1.143,4.341,3.316c-0.001,0.346-1.094,4.493-3.329,12.441c-2.764,14.645-3.88,29.553-3.329,44.446
			c-0.355,12.014,0.973,24.019,3.945,35.666c2.702,9.29,6.498,13.938,11.486,13.946s10.625-3.935,17.305-11.827
			c7.33-8.731,13.749-18.187,19.158-28.221c5.287-9.205,9.732-18.868,13.282-28.872c2.262-9,3.503-18.226,3.698-27.504
			c0.032-2.508,0.317-5.006,0.851-7.457c1.027-1.207,2.572-1.847,4.151-1.722c2.074,0.003,3.107,2.869,3.098,8.5
			c-0.011,6.816-0.031,19.756,0.532,38.772c0.563,19.016,0.89,31.068,1.425,36.156c0.296,3.407,1.141,6.745,2.503,9.882
			c1.048,2.161,2.355,4.186,3.892,6.032c1.38,1.616,2.07,2.654,2.07,3.115C1814.778,179.587,1814.134,180.978,1812.994,181.883z"/>
		<path style="fill:#DCE6E3;" d="M1921.527,167.335c-4.167,5.868-9.769,10.57-16.271,13.656c-7.415,3.598-15.574,5.395-23.814,5.247
			c-5.998,0.165-11.991-0.459-17.827-1.855c-4.394-1.192-6.564-2.924-6.561-4.949c0.389-2.093,1.254-4.069,2.528-5.775
			c1.683-2.714,2.97-4.095,3.908-4.093c0.938,0.001,2.074,0.3,2.073,0.892c-0.052,0.453-0.263,0.872-0.595,1.184
			c-0.382,0.362-0.613,0.856-0.644,1.382c-0.001,0.346,0.739,0.89,2.171,1.584c2.133,0.908,4.372,1.543,6.665,1.887
			c3.601,0.65,7.255,0.954,10.914,0.906c6.195,0.141,12.332-1.222,17.885-3.973c4.723-2.236,8.805-5.627,11.869-9.859
			c2.552-3.401,4.006-7.499,4.167-11.748c-0.103-5.19-2.78-9.989-7.142-12.803c-7.13-4.747-14.98-8.312-23.246-10.556
			c-10.268-3.375-18.166-6.153-23.793-8.434c-5-1.877-9.591-4.701-13.52-8.319c-3.377-3.072-5.276-7.445-5.217-12.01
			c0.648-7.54,4.601-14.405,10.796-18.751c7.961-6.623,17.078-11.716,26.892-15.022c9.32-3.614,19.204-5.555,29.198-5.733
			c4.643,0.007,7.111,0.9,7.454,2.777c0.371,2.054,0.55,4.137,0.534,6.224c-0.003,1.729-0.646,2.567-1.93,2.565
			c-0.697-0.033-1.375-0.238-1.975-0.596c-0.74-0.396-1.431-0.694-2.024-0.942c-0.789-0.287-1.598-0.519-2.419-0.695
			c-1.297-0.28-2.624-0.398-3.951-0.352c-7.426,0.272-14.748,1.832-21.64,4.609c-7.812,2.797-15.185,6.694-21.898,11.572
			c-6.181,4.584-9.25,9.024-9.257,13.321c-0.015,3.472,1.519,6.77,4.184,8.996c3.36,2.831,7.205,5.029,11.35,6.488
			c4.936,1.786,11.403,4.018,20.042,6.699c10.018,2.495,19.522,6.722,28.083,12.49c5.636,3.831,9.025,10.19,9.061,17.004
			C1927.374,156.505,1925.259,162.44,1921.527,167.335z"/>
		<path style="fill:#DCE6E3;" d="M2046.778,73.986c-4.741,2.35-9.708,4.212-14.826,5.558c-6.621,1.916-12.106,3.29-16.354,4.074
			c-6.67,1.274-13.388,2.3-20.156,3.031c-6.768,0.73-11.115,1.168-13.041,1.264c-0.01,6.717,0.226,13.583,0.462,20.695
			s0.376,11.953,0.52,14.818c4.495-0.586,11.214-1.662,20.206-3.278l6.571-1.027c6.115-0.758,11.916-3.136,16.803-6.888
			c1.249-1.202,2.806-2.037,4.498-2.413c0.858,0.031,1.631,0.524,2.023,1.287c0.472,0.811,0.726,1.73,0.737,2.668
			c-0.003,2.124-2.328,4.392-7.024,6.854c-4.867,2.542-10.077,4.364-15.468,5.409c-4.941,1.029-9.881,2.01-15.908,2.939
			l-11.609,1.71c-0.062,14.848,1.959,29.631,6.006,43.917c3.203,1.158,6.509,2.007,9.874,2.534c4.137,0.601,8.315,0.872,12.494,0.81
			c4.907,0.008,9.793-0.649,14.524-1.953c3.961-1.037,7.731-2.699,11.17-4.922c2.818-1.971,4.204-3.796,4.207-5.525
			c0.01-0.929-0.156-1.85-0.49-2.717c-0.381-0.928-0.843-1.821-1.379-2.669l-1.133-1.632c-0.416-0.531-0.687-1.161-0.787-1.829
			c0.002-1.136,1.287-1.727,3.806-1.723c1.918-0.032,3.741,0.828,4.935,2.329c1.222,1.362,1.919,3.113,1.968,4.942
			c-0.195,4.122-1.97,8.01-4.956,10.858c-3.803,3.971-8.497,6.977-13.695,8.77c-6.05,2.326-12.49,3.472-18.971,3.378
			c-5.783,0.069-11.563-0.32-17.285-1.163c-3.766-0.412-7.314-1.969-10.167-4.461c-3.419-4.769-5.43-10.402-5.803-16.258
			c-1.074-7.707-1.997-18.031-2.767-30.972c-2.424,0.628-4.882,1.119-7.361,1.47c-2.043,0.33-4.106,0.525-6.175,0.583
			c-1.248,0.044-2.459-0.421-3.356-1.289c-0.868-0.837-1.334-2.008-1.279-3.212c-0.007-0.711,0.129-1.416,0.398-2.074
			c0.273-0.523,0.761-0.901,1.335-1.035c3.804-0.439,6.57-0.731,8.299-0.827l7.41-0.877c-0.405-14.851-0.847-26.952-1.326-36.304
			c-1.745-0.003-3.128-0.005-4.149-0.006l-7.952-0.012c-0.895,0.047-1.769-0.275-2.419-0.893c-0.514-0.492-0.815-1.167-0.837-1.878
			c0.004-2.815,1.835-4.64,5.54-5.523l5.286-0.782c1.391-0.223,2.792-0.369,4.199-0.438c1.798-2.214,4.465-3.542,7.315-3.643
			c0.444,0.001,0.79,0.396,1.085,1.138c0.24,0.514,0.389,1.066,0.442,1.631c7.607-0.35,16.663-1.192,27.168-2.526
			c6.916-0.944,17.588-3.117,32.015-6.519l6.423-1.373c1.136,0.002,1.728,0.694,1.725,2.077
			C2049.548,71.471,2048.755,73.001,2046.778,73.986z"/>
	</g>
	<g>
		<path style="fill:#DCE6E3;" d="M2188.038,42.951c-0.02-0.031-0.04-0.061-0.062-0.09c-2.047-2.827-4.285-5.562-6.654-8.128
			c-0.734-0.797-1.972-0.864-2.787-0.148c-18.612,16.292-40.489,57.691-72.896,138.06l-3.207-7.532
			c-0.245-0.576-0.746-1.004-1.354-1.157c-0.606-0.153-1.251-0.011-1.739,0.381c-11.795,9.477-12.694,21.373-13.563,32.876
			c-0.404,5.348-0.786,10.398-2.257,15.057c-0.306,0.969,0.163,2.013,1.09,2.428c0.927,0.418,2.018,0.07,2.537-0.804
			c3.493-5.883,4.326-11.794,5.132-17.509c0.207-1.467,0.421-2.983,0.657-4.374c0.32-1.433,0.547-2.908,0.767-4.335
			c0.718-4.666,1.401-9.11,5.248-12.405l3.551,15.015c0.204,0.862,0.95,1.487,1.834,1.537c0.879,0.045,1.695-0.487,1.995-1.321
			c21.704-60.486,44.3-104.928,73.062-143.622c15.289,22.85,20.458,46.111,15.8,71.022c-4.9,26.254-18.411,50.889-41.31,75.315
			c-8.686,9.313-18.183,18.201-27.366,26.798c-3.986,3.731-8.108,7.589-12.113,11.435c-0.721,0.691-0.82,1.81-0.233,2.618
			c0.388,0.534,0.997,0.824,1.619,0.824c0.32,0,0.644-0.077,0.943-0.237c9.231-4.942,56.745-46.85,73.736-78.187
			C2211.909,116.936,2211.092,78.743,2188.038,42.951z"/>
		<path style="fill:#DCE6E3;" d="M2166.665,120.223c-0.48-0.188-1.029,0.021-1.26,0.486l-0.628,1.261
			c-1.01,2.026-2.054,4.122-3.111,6.377c-15.68,35.856-34.436,63.723-57.341,85.192c-10.183,9.583-21.214,18.64-31.882,27.398
			c-7.177,5.893-14.597,11.984-21.686,18.177c-4.516,3.934-8.607,8.464-12.565,12.845c-1.677,1.856-3.41,3.775-5.149,5.619
			c-0.353,0.374-0.364,0.955-0.026,1.343c0.196,0.227,0.474,0.344,0.755,0.344c0.2,0,0.403-0.061,0.578-0.185
			c6.696-4.757,12.623-9.703,18.898-14.94c2.987-2.493,6.076-5.071,9.236-7.61c4.688-3.764,9.604-7.425,14.36-10.965
			c4.958-3.69,10.086-7.508,14.979-11.461c36.308-29.066,62.394-68.027,75.438-112.669
			C2167.406,120.938,2167.147,120.412,2166.665,120.223z"/>
	</g>
	<g>
		<g>
			<path style="fill:#DCE6E3;" d="M1413.319,225.804l-0.059,37.396l-4.838-0.008l0.059-37.396L1413.319,225.804z"/>
			<path style="fill:#DCE6E3;" d="M1471.083,225.894l4.417,0.007l15.384,26.717l0.042-26.692l4.862,0.008l-0.059,37.396l-4.23-0.007
				l-15.594-27.043l-0.042,27.019l-4.838-0.007L1471.083,225.894z"/>
			<path style="fill:#DCE6E3;" d="M1564.297,230.879l-0.051,32.559l-4.862-0.008l0.051-32.559l-8.718-0.014l0.008-4.838
				l22.298,0.035l-0.008,4.838L1564.297,230.879z"/>
			<path style="fill:#DCE6E3;" d="M1648.106,226.172l-0.008,4.838l-15.31-0.023l-0.018,11.43l15.31,0.023l-0.008,4.839l-15.31-0.024
				l-0.018,11.43l15.31,0.023l-0.008,4.861l-20.148-0.031l0.059-37.396L1648.106,226.172z"/>
			<path style="fill:#DCE6E3;" d="M1714.011,251.705l-4.417-0.007l-0.019,11.967l-4.838-0.008l0.059-37.396l10.611,0.017
				c3.007,0.409,5.545,1.652,7.614,3.728c2.474,2.497,3.707,5.491,3.702,8.981c-0.006,3.521-1.249,6.527-3.73,9.017
				c-1.717,1.711-3.027,2.676-3.931,2.892l8.277,12.798l-5.867-0.009L1714.011,251.705z M1709.626,231.13l-0.024,15.707l4.417,0.007
				c2.15,0.003,3.994-0.761,5.531-2.294c1.537-1.532,2.308-3.389,2.312-5.571c0.003-2.166-0.762-4.013-2.294-5.543
				c-1.532-1.529-3.374-2.296-5.524-2.299L1709.626,231.13z"/>
			<path style="fill:#DCE6E3;" d="M1787.73,226.389l-0.058,37.397l-4.838-0.008l0.058-37.396L1787.73,226.389z"/>
			<path style="fill:#DCE6E3;" d="M1877.579,231.649c3.733,3.745,5.597,8.26,5.589,13.542c-0.009,5.282-1.886,9.79-5.631,13.524
				c-3.746,3.733-8.26,5.596-13.542,5.588c-5.282-0.009-9.791-1.886-13.524-5.631c-3.734-3.746-5.597-8.259-5.588-13.541
				c0.008-5.283,1.884-9.791,5.63-13.525c3.745-3.733,8.26-5.596,13.542-5.588C1869.337,226.027,1873.845,227.903,1877.579,231.649z
				 M1864.047,230.903c-3.942-0.006-7.307,1.379-10.092,4.156c-2.786,2.777-4.182,6.138-4.188,10.08
				c-0.007,3.942,1.383,7.31,4.167,10.103c2.785,2.794,6.142,4.194,10.068,4.2c3.941,0.006,7.306-1.383,10.091-4.169
				c2.786-2.784,4.183-6.147,4.189-10.09c0.006-3.942-1.381-7.307-4.157-10.092C1871.349,232.305,1867.988,230.909,1864.047,230.903
				z"/>
			<path style="fill:#DCE6E3;" d="M1949.125,252.073l-4.418-0.007l-0.019,11.966l-4.838-0.008l0.058-37.396l10.611,0.017
				c3.007,0.41,5.545,1.652,7.614,3.729c2.474,2.497,3.708,5.49,3.702,8.98c-0.006,3.522-1.248,6.527-3.729,9.017
				c-1.718,1.712-3.028,2.676-3.932,2.893l8.277,12.797l-5.866-0.009L1949.125,252.073z M1944.739,231.497l-0.025,15.707
				l4.418,0.007c2.15,0.004,3.995-0.761,5.531-2.294c1.538-1.532,2.309-3.389,2.312-5.571c0.004-2.165-0.761-4.013-2.294-5.542
				c-1.532-1.53-3.373-2.296-5.523-2.3L1944.739,231.497z"/>
		</g>
	</g>
</g>
<rect x="1190" y="696.836" style="fill:#4E8373;" width="1126" height="800"/>
<g>
	<g>
		<g>
			<g>
				<g>
					<path style="fill:#B8CDC7;" d="M1405.329,1061.977c-0.283,0.699-0.765,1.299-1.386,1.727c-1.27,0.813-2.705,1.334-4.201,1.524
						c-2.174,0.441-3.607,0.686-4.348,0.783c0.735,3.705,1.127,5.484,1.128,5.385c0.688,2.421,1.374,5.731,2.158,9.881
						c1.73,9.881,3.511,18.198,5.344,24.95c0.295,1.288,0.524,2.591,0.685,3.903c-0.002,0.949-0.419,1.85-1.14,2.468
						c-0.757,0.685-1.747,1.054-2.767,1.033c-1.066-0.067-2.037-0.637-2.615-1.535c-0.625-0.827-1.154-1.723-1.576-2.67
						c-0.884-3.31-1.668-6.967-2.353-11.018c-0.685-4.051-1.567-8.942-2.545-14.821c-0.391-2.52-0.979-5.632-1.862-9.338
						c-0.883-3.706-1.423-6.176-1.717-7.312c-5.73,0.732-15.512,2.297-29.641,4.596l-8.398,1.419l-3.076,8.54l-4.068,11.6
						c-3.309,10.531-5.742,18.644-7.298,24.338c-0.252,1.274-0.852,2.453-1.734,3.405c-0.812,0.886-1.961,1.387-3.163,1.378
						c-0.982,0.029-1.942-0.287-2.715-0.893c-0.724-0.612-1.124-1.524-1.083-2.471c0.31-2.299,0.894-4.553,1.739-6.714
						c1.191-3.455,1.885-5.479,2.084-6.171c0.199-0.691,1.141-3.159,2.332-6.664c1.191-3.505,2.878-8.342,4.96-13.673
						c2.083-5.331,3.323-8.934,4.017-10.662c-4.941,1.178-8.646,2.061-11.018,2.749c-2.232,0.653-4.511,1.128-6.818,1.422
						c-0.972,0.059-1.899-0.415-2.418-1.239c-0.399-0.776-0.569-1.65-0.49-2.52c-0.111-0.903,0.222-1.804,0.893-2.419
						c0.88-0.557,1.85-0.956,2.866-1.181c3.706-0.883,7.559-1.766,11.71-2.599c4.15-0.833,6.917-1.471,8.448-1.715
						c0.992-2.814,1.687-5.183,2.184-7.109c0.497-1.925,0.893-2.814,1.539-4.937c0.645-2.123,1.34-4.196,2.135-7.01l2.185-7.405
						c3.675-12.638,5.81-19.895,6.406-21.87c0.335-1.018,0.749-2.008,1.239-2.961c0.3-0.717,1.002-1.184,1.78-1.183
						c1.784-0.019,3.558,0.285,5.234,0.897c0.344-0.387,0.658-0.799,0.94-1.233c0.36-0.543,0.854-0.985,1.434-1.282
						c0.671-0.286,1.396-0.42,2.124-0.392c1.729,0.003,3.75,1.982,6.016,5.986c2.517,4.516,4.705,9.207,6.547,14.037
						c1.279,3.212,2.852,7.956,4.917,14.281c2.064,6.325,3.194,10.525,3.734,12.551c1.258-0.139,2.499-0.401,3.705-0.784
						l1.977-0.639c0.578-0.261,1.111-0.61,1.582-1.035c0.492-0.41,1.022-0.773,1.582-1.084c0.51-0.271,1.121-0.271,1.63,0.003
						c1.317,0.693,2.064,2.132,1.871,3.608C1405.917,1060.63,1405.682,1061.332,1405.329,1061.977z M1383.814,1049.843
						c-1.572-5.534-2.997-9.883-4.325-13.54c-1.463-3.799-3.207-7.483-5.218-11.022c-1.201-2.713-2.965-5.14-5.175-7.12
						l-1.586,3.751c-1.631,3.189-3.039,6.487-4.214,9.871c-2.349,6.911-6.038,18.429-11.068,34.556l16.945-2.887l13.931-2.151
						l3.903-0.537c-0.442-1.729-1.424-5.336-2.996-10.92L1383.814,1049.843z"/>
				</g>
			</g>
			<path style="fill:#B8CDC7;" d="M1551.396,1068.924c-2.437,0.757-4.96,1.201-7.509,1.322l-5.779-0.009
				c-0.005,3.556-0.358,7.556-0.71,11.951c-0.353,4.395-0.655,8-0.906,10.864l-0.502,5.383l-0.354,5.531l-1.058,13.334
				c-0.503,5.877-2.384,8.788-5.743,8.782c-1.284-0.002-2.517-1.486-3.697-4.401c-1.057-2.268-1.673-4.716-1.816-7.214
				c0.249-1.014,0.724-1.958,1.387-2.764c0.987-1.563,1.583-3.341,1.737-5.183c0.449-3.21,1.001-8.592,1.605-16.049
				c0.604-7.457,0.96-13.778,1.215-18.865c-4.495,0.339-9.336,0.825-14.523,1.508l-15.56,1.556
				c-8.101,0.778-14.424,1.311-19.067,1.501c-0.457,7.655-0.965,16.939-1.575,27.854c-0.61,10.914-0.966,17.927-0.97,20.347
				c0.035,1.213,0.182,2.42,0.439,3.606c0.251,1.137,0.398,2.294,0.439,3.458c-0.002,1.037-0.793,2.073-2.326,3.108
				c-1.088,0.852-2.385,1.396-3.756,1.575c-1.136-0.002-2.073-0.744-2.812-2.276c-0.76-1.535-1.147-3.228-1.128-4.941
				c0.002-1.037,0.004-2.716,0.354-4.938s0.402-4.395,0.503-6.124c0.499-3.16,0.75-5.679,0.901-7.654
				c0.554-6.766,1.058-13.334,1.414-19.754c0.356-6.42,0.56-10.618,0.711-12.791c-6.799,1.216-13.692,1.833-20.599,1.845
				c-1.999,0.036-3.961-0.536-5.628-1.639c-1.595-1.119-2.475-3.001-2.314-4.943c-0.108-1.229,0.307-2.448,1.141-3.357
				c1.317-0.94,2.942-1.343,4.546-1.129l9.187,0.014c5.976,0.256,10.865,0.363,14.52,0.368c0.608-9.877,0.917-17.631,0.926-23.508
				c0.021-13.385,0.04-25.386-0.289-36.006l0.01-6.371c-0.044-1.648,0.69-3.221,1.982-4.244c1.291-1.069,2.92-1.644,4.596-1.623
				c1.284,0.002,2.122,0.991,2.564,2.918c0.494,2.154,0.723,4.36,0.681,6.57c-0.004,2.568-0.259,7.754-0.864,15.606
				c-0.712,13.384-1.069,20.446-1.07,21.236l-0.928,24.694c9.878,0.016,26.13-1.688,49.397-4.417
				c0.45-3.308,1.254-12.099,2.461-26.272c0.473-7.506,0.876-12.988,1.211-16.445l1.058-13.482
				c1.508-17.087,2.167-27.507,2.174-31.903c-0.041-1.411,0.605-2.755,1.734-3.603c1.111-0.917,2.513-1.405,3.953-1.377
				c2.074,0.003,3.109,2.03,3.102,6.03c-0.004,2.568-0.558,9.284-1.76,20.247c-1.257,14.321-1.961,22.272-2.112,23.901
				c-0.705,8.84-1.361,17.334-2.015,25.383s-1.108,13.531-1.31,16.297c1.9-0.303,3.758-0.831,5.534-1.572
				c1.585-0.592,3.251-0.939,4.941-1.029c1.526,0.186,2.932,0.927,3.948,2.081c1.529,1.385,2.268,2.374,2.267,2.967
				C1555.4,1066.807,1554.064,1068.138,1551.396,1068.924z"/>
			<path style="fill:#B8CDC7;" d="M1679.208,1075.347c-6.505,10.605-15.335,19.593-25.823,26.285
				c-9.437,6.278-20.489,9.692-31.823,9.828c-6.112,0.032-12.153-1.311-17.676-3.929c-5.464-2.53-10.124-6.519-13.465-11.529
				c-3.554-5.439-5.354-11.838-5.157-18.332c0.275-13.172,3.555-26.107,9.591-37.818c6.775-13.663,15.737-26.128,26.531-36.902
				c0.933-0.908,2.044-1.612,3.263-2.069c1.185-0.355,2.419-0.52,3.656-0.488c1.17,0.016,2.319,0.306,3.357,0.845
				c1.086,0.594,1.628,1.287,1.627,2.077c-0.064,0.707-0.267,1.395-0.596,2.024c-0.396,0.839-0.644,1.382-0.793,1.629
				c0.844-0.021,1.686-0.103,2.519-0.243c1.916-0.251,3.848-0.347,5.779-0.287c4.568,0.165,9.112,0.734,13.58,1.701
				c4.282,0.706,8.483,1.838,12.54,3.378c6.72,2.765,12.615,7.214,17.118,12.918c3.755,4.818,5.812,10.743,5.851,16.851
				C1689.198,1053.36,1685.704,1065.167,1679.208,1075.347z M1677.206,1028.572c-3.638-4.614-8.392-8.226-13.813-10.492
				c-4.06-1.631-8.416-2.395-12.789-2.243c-1.63-0.003-3.803-0.006-6.569,0.335l-6.421-0.01c-5.532-0.009-8.296-1.149-8.292-3.47
				c-0.076-0.755-0.075-1.517,0.004-2.272c0.035-0.477,0.153-0.945,0.348-1.382c-2.154-0.102-4.263,0.639-5.881,2.065
				c-9.023,9.114-16.437,19.69-21.929,31.279c-4.916,10.084-7.563,21.122-7.755,32.338c-0.751,7.854,1.918,15.652,7.326,21.397
				c5.618,4.712,12.82,7.107,20.141,6.699c10.201,0.033,20.209-2.773,28.906-8.104c9.169-5.388,16.946-12.854,22.704-21.795
				c5.548-8.288,8.551-18.018,8.638-27.991C1682.098,1039.119,1680.478,1033.379,1677.206,1028.572z"/>
			<path style="fill:#B8CDC7;" d="M1812.994,1113.883c-1.218,1.011-2.767,1.536-4.349,1.475c-2.272-0.004-4.392-2.427-6.311-7.27
				c-1.942-4.821-3.181-9.896-3.681-15.07c-0.487-4.396-0.916-14.572-1.335-30.624c-0.237-6.668-0.428-10.817-0.524-12.447
				c-7.216,17.944-16.386,35.04-27.343,50.977c-10.197,14.801-19.79,21.948-28.829,21.933c-5.087-0.376-9.558-3.512-11.643-8.168
				c-3.775-6.794-6.306-14.207-7.473-21.891c-1.792-9.959-2.652-20.063-2.571-30.181c0.014-8.89,0.573-18.916,1.628-30.175
				c0.624-8.208,2.009-16.341,4.137-24.293c0.366-1.268,1.047-2.422,1.981-3.355c0.76-0.837,1.835-1.319,2.965-1.329
				c2.865,0.004,4.345,1.143,4.341,3.316c-0.001,0.346-1.094,4.493-3.329,12.441c-2.764,14.645-3.88,29.553-3.329,44.446
				c-0.355,12.014,0.973,24.019,3.945,35.666c2.702,9.29,6.498,13.938,11.486,13.946s10.625-3.935,17.305-11.827
				c7.33-8.73,13.749-18.187,19.158-28.221c5.287-9.205,9.732-18.868,13.282-28.872c2.262-9,3.503-18.227,3.698-27.505
				c0.032-2.508,0.317-5.006,0.851-7.457c1.027-1.207,2.572-1.847,4.151-1.722c2.074,0.003,3.107,2.87,3.098,8.5
				c-0.011,6.816-0.031,19.756,0.532,38.772c0.563,19.016,0.89,31.068,1.425,36.156c0.296,3.407,1.141,6.745,2.503,9.882
				c1.048,2.161,2.355,4.186,3.892,6.032c1.38,1.616,2.07,2.654,2.07,3.115C1814.778,1111.587,1814.134,1112.978,1812.994,1113.883z
				"/>
			<path style="fill:#B8CDC7;" d="M1921.527,1099.335c-4.167,5.868-9.769,10.57-16.271,13.656
				c-7.415,3.598-15.574,5.395-23.814,5.248c-5.998,0.165-11.991-0.459-17.827-1.855c-4.394-1.192-6.564-2.924-6.561-4.949
				c0.389-2.093,1.254-4.069,2.528-5.775c1.683-2.714,2.97-4.095,3.908-4.093c0.938,0.001,2.074,0.3,2.073,0.892
				c-0.052,0.453-0.263,0.872-0.595,1.184c-0.382,0.362-0.613,0.856-0.644,1.382c-0.001,0.346,0.739,0.89,2.171,1.584
				c2.133,0.908,4.372,1.543,6.665,1.887c3.601,0.65,7.255,0.953,10.914,0.906c6.195,0.141,12.332-1.222,17.885-3.973
				c4.723-2.236,8.805-5.627,11.869-9.859c2.552-3.401,4.006-7.499,4.167-11.748c-0.103-5.19-2.78-9.989-7.142-12.803
				c-7.13-4.747-14.98-8.312-23.246-10.556c-10.268-3.375-18.166-6.153-23.793-8.434c-5-1.877-9.591-4.701-13.52-8.319
				c-3.377-3.072-5.276-7.445-5.217-12.01c0.648-7.54,4.601-14.405,10.796-18.751c7.961-6.623,17.078-11.716,26.892-15.022
				c9.32-3.614,19.204-5.555,29.198-5.733c4.643,0.007,7.111,0.9,7.454,2.778c0.371,2.054,0.55,4.137,0.534,6.224
				c-0.003,1.729-0.646,2.567-1.93,2.565c-0.697-0.033-1.375-0.238-1.975-0.596c-0.74-0.396-1.431-0.694-2.024-0.942
				c-0.789-0.287-1.598-0.519-2.419-0.695c-1.297-0.28-2.624-0.398-3.951-0.352c-7.426,0.273-14.748,1.832-21.64,4.609
				c-7.812,2.797-15.185,6.694-21.898,11.572c-6.181,4.584-9.25,9.024-9.257,13.321c-0.015,3.472,1.519,6.77,4.184,8.995
				c3.36,2.831,7.205,5.029,11.35,6.488c4.936,1.786,11.403,4.018,20.042,6.699c10.018,2.495,19.522,6.722,28.083,12.49
				c5.636,3.831,9.025,10.19,9.061,17.004C1927.374,1088.505,1925.259,1094.44,1921.527,1099.335z"/>
			<path style="fill:#B8CDC7;" d="M2046.778,1005.986c-4.741,2.35-9.708,4.212-14.826,5.558c-6.621,1.916-12.106,3.29-16.354,4.074
				c-6.67,1.274-13.388,2.3-20.156,3.031s-11.115,1.168-13.041,1.264c-0.01,6.717,0.226,13.583,0.462,20.695
				s0.376,11.953,0.52,14.818c4.495-0.586,11.214-1.662,20.206-3.278l6.571-1.027c6.115-0.758,11.916-3.136,16.803-6.888
				c1.249-1.203,2.806-2.037,4.498-2.413c0.858,0.031,1.631,0.524,2.023,1.287c0.472,0.811,0.726,1.73,0.737,2.668
				c-0.003,2.124-2.328,4.392-7.024,6.854c-4.867,2.542-10.077,4.364-15.468,5.409c-4.941,1.029-9.881,2.01-15.908,2.938
				l-11.609,1.711c-0.062,14.848,1.959,29.631,6.006,43.917c3.203,1.158,6.509,2.007,9.874,2.534
				c4.137,0.601,8.315,0.872,12.494,0.81c4.907,0.008,9.793-0.649,14.524-1.953c3.961-1.037,7.731-2.699,11.17-4.922
				c2.818-1.971,4.204-3.797,4.207-5.525c0.01-0.929-0.156-1.85-0.49-2.717c-0.381-0.928-0.843-1.821-1.379-2.669l-1.133-1.632
				c-0.416-0.531-0.687-1.161-0.787-1.829c0.002-1.136,1.287-1.727,3.806-1.723c1.918-0.032,3.741,0.828,4.935,2.329
				c1.222,1.362,1.919,3.113,1.968,4.942c-0.195,4.122-1.97,8.01-4.956,10.858c-3.803,3.971-8.497,6.977-13.695,8.77
				c-6.05,2.326-12.49,3.472-18.971,3.378c-5.783,0.069-11.563-0.32-17.285-1.163c-3.766-0.412-7.314-1.969-10.167-4.461
				c-3.419-4.769-5.43-10.402-5.803-16.258c-1.074-7.707-1.997-18.031-2.767-30.972c-2.424,0.628-4.882,1.119-7.361,1.47
				c-2.043,0.33-4.106,0.525-6.175,0.583c-1.248,0.044-2.459-0.421-3.356-1.289c-0.868-0.837-1.334-2.008-1.279-3.212
				c-0.007-0.711,0.129-1.416,0.398-2.074c0.273-0.523,0.761-0.901,1.335-1.035c3.804-0.438,6.57-0.731,8.299-0.827l7.41-0.877
				c-0.405-14.851-0.847-26.952-1.326-36.304c-1.745-0.003-3.128-0.005-4.149-0.007l-7.952-0.012
				c-0.895,0.047-1.769-0.275-2.419-0.893c-0.514-0.492-0.815-1.167-0.837-1.878c0.004-2.815,1.835-4.64,5.54-5.523l5.286-0.782
				c1.391-0.222,2.792-0.369,4.199-0.438c1.798-2.214,4.465-3.542,7.315-3.643c0.444,0.001,0.79,0.396,1.085,1.138
				c0.24,0.514,0.389,1.066,0.442,1.631c7.607-0.35,16.663-1.192,27.168-2.526c6.916-0.944,17.588-3.117,32.015-6.519l6.423-1.373
				c1.136,0.002,1.728,0.694,1.725,2.077C2049.548,1003.471,2048.755,1005.001,2046.778,1005.986z"/>
		</g>
		<g>
			<path style="fill:#B8CDC7;" d="M2188.038,974.951c-0.02-0.031-0.04-0.061-0.062-0.09c-2.047-2.827-4.285-5.562-6.654-8.128
				c-0.734-0.797-1.972-0.864-2.787-0.148c-18.612,16.292-40.489,57.691-72.896,138.06l-3.207-7.532
				c-0.245-0.576-0.746-1.004-1.354-1.157c-0.606-0.153-1.251-0.011-1.739,0.381c-11.795,9.477-12.694,21.373-13.563,32.876
				c-0.404,5.348-0.786,10.398-2.257,15.057c-0.306,0.969,0.163,2.013,1.09,2.428c0.927,0.418,2.018,0.07,2.537-0.804
				c3.493-5.883,4.326-11.794,5.132-17.509c0.207-1.467,0.421-2.983,0.657-4.374c0.32-1.433,0.547-2.908,0.767-4.335
				c0.718-4.666,1.401-9.11,5.248-12.405l3.551,15.015c0.204,0.862,0.95,1.487,1.834,1.537c0.879,0.045,1.695-0.487,1.995-1.321
				c21.704-60.486,44.3-104.928,73.062-143.622c15.289,22.85,20.458,46.111,15.8,71.022c-4.9,26.254-18.411,50.889-41.31,75.315
				c-8.686,9.313-18.183,18.201-27.366,26.798c-3.986,3.731-8.108,7.589-12.113,11.435c-0.721,0.691-0.82,1.81-0.233,2.618
				c0.388,0.534,0.997,0.824,1.619,0.824c0.32,0,0.644-0.077,0.943-0.237c9.231-4.942,56.745-46.85,73.736-78.187
				C2211.909,1048.936,2211.092,1010.743,2188.038,974.951z"/>
			<path style="fill:#B8CDC7;" d="M2166.665,1052.223c-0.48-0.188-1.029,0.021-1.26,0.486l-0.628,1.261
				c-1.01,2.026-2.054,4.122-3.111,6.377c-15.68,35.856-34.436,63.723-57.341,85.192c-10.183,9.583-21.214,18.64-31.882,27.398
				c-7.177,5.893-14.597,11.984-21.686,18.177c-4.516,3.934-8.607,8.464-12.565,12.845c-1.677,1.856-3.41,3.775-5.149,5.619
				c-0.353,0.374-0.364,0.955-0.026,1.343c0.196,0.227,0.474,0.344,0.755,0.344c0.2,0,0.403-0.061,0.578-0.185
				c6.696-4.757,12.623-9.703,18.898-14.94c2.987-2.493,6.076-5.071,9.236-7.61c4.688-3.764,9.604-7.425,14.36-10.965
				c4.958-3.69,10.086-7.508,14.979-11.461c36.308-29.066,62.394-68.027,75.438-112.669
				C2167.406,1052.938,2167.147,1052.412,2166.665,1052.223z"/>
		</g>
		<g>
			<g>
				<path style="fill:#B8CDC7;" d="M1413.319,1157.804l-0.059,37.396l-4.838-0.008l0.059-37.396L1413.319,1157.804z"/>
				<path style="fill:#B8CDC7;" d="M1471.083,1157.894l4.417,0.007l15.384,26.717l0.042-26.692l4.862,0.008l-0.059,37.396
					l-4.23-0.007l-15.594-27.043l-0.042,27.019l-4.838-0.007L1471.083,1157.894z"/>
				<path style="fill:#B8CDC7;" d="M1564.297,1162.879l-0.051,32.559l-4.862-0.008l0.051-32.559l-8.718-0.014l0.008-4.838
					l22.298,0.035l-0.008,4.838L1564.297,1162.879z"/>
				<path style="fill:#B8CDC7;" d="M1648.106,1158.172l-0.008,4.838l-15.31-0.023l-0.018,11.43l15.31,0.023l-0.008,4.839
					l-15.31-0.024l-0.018,11.43l15.31,0.023l-0.008,4.861l-20.148-0.031l0.059-37.396L1648.106,1158.172z"/>
				<path style="fill:#B8CDC7;" d="M1714.011,1183.705l-4.417-0.007l-0.019,11.967l-4.838-0.008l0.059-37.396l10.611,0.017
					c3.007,0.409,5.545,1.652,7.614,3.728c2.474,2.497,3.707,5.491,3.702,8.981c-0.006,3.521-1.249,6.527-3.73,9.017
					c-1.717,1.711-3.027,2.676-3.931,2.892l8.277,12.798l-5.867-0.009L1714.011,1183.705z M1709.626,1163.13l-0.024,15.707
					l4.417,0.007c2.15,0.003,3.994-0.761,5.531-2.294c1.537-1.532,2.308-3.389,2.312-5.571c0.003-2.166-0.762-4.013-2.294-5.543
					c-1.532-1.529-3.374-2.296-5.524-2.299L1709.626,1163.13z"/>
				<path style="fill:#B8CDC7;" d="M1787.73,1158.389l-0.058,37.397l-4.838-0.008l0.058-37.396L1787.73,1158.389z"/>
				<path style="fill:#B8CDC7;" d="M1877.579,1163.649c3.733,3.745,5.597,8.26,5.589,13.542c-0.009,5.282-1.886,9.79-5.631,13.524
					c-3.746,3.733-8.26,5.596-13.542,5.588c-5.282-0.009-9.791-1.886-13.524-5.631c-3.734-3.746-5.597-8.259-5.588-13.541
					c0.008-5.283,1.884-9.791,5.63-13.525c3.745-3.733,8.26-5.596,13.542-5.588
					C1869.337,1158.027,1873.845,1159.903,1877.579,1163.649z M1864.047,1162.903c-3.942-0.006-7.307,1.379-10.092,4.156
					c-2.786,2.777-4.182,6.138-4.188,10.08c-0.007,3.942,1.383,7.31,4.167,10.103c2.785,2.794,6.142,4.194,10.068,4.2
					c3.941,0.006,7.306-1.383,10.091-4.169c2.786-2.784,4.183-6.147,4.189-10.09c0.006-3.942-1.381-7.307-4.157-10.092
					C1871.349,1164.305,1867.988,1162.909,1864.047,1162.903z"/>
				<path style="fill:#B8CDC7;" d="M1949.125,1184.073l-4.418-0.007l-0.019,11.966l-4.838-0.008l0.058-37.396l10.611,0.017
					c3.007,0.41,5.545,1.652,7.614,3.729c2.474,2.497,3.708,5.49,3.702,8.98c-0.006,3.522-1.248,6.527-3.729,9.017
					c-1.718,1.712-3.028,2.676-3.932,2.893l8.277,12.797l-5.866-0.009L1949.125,1184.073z M1944.739,1163.497l-0.025,15.707
					l4.418,0.007c2.15,0.004,3.995-0.761,5.531-2.294c1.538-1.532,2.309-3.389,2.312-5.571c0.004-2.165-0.761-4.013-2.294-5.542
					c-1.532-1.53-3.373-2.296-5.523-2.3L1944.739,1163.497z"/>
			</g>
		</g>
	</g>
</g>
<rect x="-49" y="696.836" style="fill:#B8CDC7;" width="1126" height="800"/>
<rect x="-1334.846" y="566.089" style="fill:#DCE6E3;" width="1126" height="800"/>
<g>
	<g>
		<path style="fill:#4E8373;" d="M166.329,1061.977c-0.283,0.699-0.765,1.299-1.386,1.727c-1.27,0.813-2.705,1.334-4.201,1.524
			c-2.174,0.441-3.607,0.686-4.348,0.783c0.735,3.705,1.127,5.484,1.128,5.385c0.688,2.421,1.374,5.731,2.158,9.881
			c1.73,9.881,3.511,18.198,5.345,24.95c0.295,1.288,0.524,2.591,0.685,3.903c-0.002,0.949-0.419,1.85-1.14,2.468
			c-0.757,0.685-1.747,1.054-2.767,1.033c-1.066-0.067-2.037-0.637-2.615-1.535c-0.625-0.827-1.154-1.723-1.576-2.67
			c-0.884-3.31-1.668-6.967-2.353-11.018c-0.685-4.051-1.566-8.942-2.545-14.821c-0.391-2.52-0.979-5.632-1.862-9.338
			c-0.883-3.706-1.423-6.176-1.717-7.312c-5.73,0.732-15.512,2.297-29.641,4.596l-8.399,1.419l-3.076,8.54l-4.068,11.6
			c-3.309,10.531-5.742,18.644-7.298,24.338c-0.252,1.274-0.852,2.453-1.734,3.405c-0.812,0.886-1.961,1.387-3.163,1.378
			c-0.982,0.029-1.942-0.287-2.715-0.893c-0.724-0.612-1.124-1.524-1.083-2.471c0.31-2.299,0.894-4.553,1.739-6.714
			c1.191-3.455,1.885-5.479,2.084-6.171s1.141-3.159,2.332-6.664c1.191-3.505,2.878-8.342,4.96-13.673
			c2.083-5.331,3.323-8.934,4.017-10.662c-4.941,1.178-8.646,2.061-11.018,2.749c-2.232,0.653-4.511,1.128-6.818,1.422
			c-0.972,0.059-1.899-0.415-2.418-1.239c-0.399-0.776-0.569-1.65-0.49-2.52c-0.111-0.903,0.222-1.804,0.893-2.419
			c0.88-0.557,1.85-0.956,2.866-1.181c3.706-0.883,7.559-1.766,11.71-2.599c4.15-0.833,6.917-1.471,8.448-1.715
			c0.992-2.814,1.687-5.183,2.184-7.109s0.893-2.814,1.539-4.937c0.645-2.123,1.34-4.196,2.135-7.01l2.185-7.405
			c3.675-12.638,5.81-19.895,6.406-21.87c0.334-1.018,0.749-2.008,1.239-2.961c0.3-0.717,1.002-1.184,1.78-1.183
			c1.784-0.019,3.558,0.285,5.234,0.897c0.344-0.387,0.658-0.799,0.94-1.233c0.36-0.543,0.854-0.985,1.434-1.282
			c0.671-0.286,1.396-0.42,2.124-0.392c1.729,0.003,3.751,1.982,6.016,5.986c2.517,4.516,4.705,9.207,6.547,14.037
			c1.279,3.212,2.852,7.956,4.917,14.281c2.064,6.325,3.194,10.525,3.734,12.551c1.258-0.139,2.499-0.401,3.705-0.784l1.977-0.639
			c0.578-0.261,1.111-0.61,1.582-1.035c0.492-0.41,1.022-0.773,1.582-1.084c0.51-0.271,1.121-0.271,1.63,0.003
			c1.317,0.693,2.064,2.132,1.871,3.608C166.917,1060.63,166.682,1061.332,166.329,1061.977z M144.814,1049.843
			c-1.572-5.534-2.997-9.883-4.325-13.54c-1.463-3.799-3.207-7.483-5.218-11.022c-1.201-2.713-2.965-5.14-5.175-7.12l-1.586,3.751
			c-1.631,3.189-3.039,6.487-4.214,9.871c-2.349,6.911-6.038,18.429-11.068,34.556l16.945-2.887l13.931-2.151l3.903-0.537
			c-0.442-1.729-1.424-5.336-2.996-10.92L144.814,1049.843z"/>
		<path style="fill:#4E8373;" d="M312.396,1068.924c-2.437,0.757-4.96,1.201-7.509,1.322l-5.779-0.009
			c-0.006,3.556-0.358,7.556-0.71,11.951s-0.655,8-0.906,10.864l-0.502,5.383l-0.354,5.531l-1.058,13.334
			c-0.503,5.877-2.384,8.788-5.743,8.782c-1.284-0.002-2.517-1.486-3.697-4.401c-1.057-2.268-1.673-4.716-1.816-7.214
			c0.249-1.014,0.724-1.958,1.387-2.764c0.987-1.563,1.583-3.341,1.737-5.183c0.45-3.21,1.001-8.592,1.606-16.049
			c0.604-7.457,0.96-13.778,1.215-18.865c-4.495,0.339-9.336,0.825-14.523,1.508l-15.56,1.556
			c-8.101,0.778-14.424,1.311-19.067,1.501c-0.456,7.655-0.965,16.939-1.575,27.854c-0.61,10.914-0.966,17.927-0.97,20.347
			c0.035,1.213,0.182,2.42,0.439,3.606c0.251,1.137,0.398,2.294,0.439,3.458c-0.002,1.037-0.793,2.073-2.326,3.108
			c-1.088,0.852-2.385,1.396-3.756,1.575c-1.136-0.002-2.073-0.744-2.812-2.276c-0.76-1.535-1.147-3.228-1.128-4.941
			c0.002-1.037,0.004-2.716,0.353-4.938c0.349-2.222,0.402-4.395,0.503-6.124c0.499-3.16,0.75-5.679,0.901-7.654
			c0.554-6.766,1.058-13.334,1.414-19.754c0.356-6.42,0.56-10.618,0.711-12.791c-6.799,1.216-13.692,1.833-20.599,1.845
			c-1.999,0.036-3.961-0.536-5.628-1.639c-1.595-1.119-2.475-3.001-2.314-4.943c-0.108-1.229,0.306-2.448,1.141-3.357
			c1.317-0.94,2.942-1.343,4.546-1.129l9.187,0.014c5.976,0.256,10.865,0.363,14.52,0.368c0.608-9.877,0.917-17.631,0.926-23.508
			c0.021-13.385,0.04-25.386-0.289-36.006l0.01-6.371c-0.044-1.648,0.69-3.221,1.982-4.244c1.291-1.069,2.92-1.644,4.596-1.623
			c1.284,0.002,2.122,0.991,2.564,2.918c0.494,2.154,0.723,4.36,0.681,6.57c-0.004,2.568-0.259,7.754-0.864,15.606
			c-0.712,13.384-1.069,20.446-1.07,21.236l-0.928,24.694c9.878,0.016,26.13-1.688,49.397-4.417
			c0.45-3.308,1.254-12.099,2.461-26.272c0.473-7.506,0.876-12.988,1.211-16.445l1.058-13.482
			c1.508-17.087,2.167-27.507,2.174-31.903c-0.041-1.411,0.605-2.755,1.734-3.603c1.111-0.917,2.513-1.405,3.953-1.377
			c2.074,0.003,3.108,2.03,3.102,6.03c-0.004,2.568-0.558,9.284-1.76,20.247c-1.257,14.321-1.961,22.272-2.112,23.901
			c-0.705,8.84-1.361,17.334-2.015,25.383s-1.108,13.531-1.31,16.297c1.9-0.303,3.758-0.831,5.534-1.572
			c1.585-0.592,3.251-0.939,4.941-1.029c1.527,0.186,2.931,0.927,3.948,2.081c1.529,1.385,2.268,2.374,2.267,2.967
			C316.4,1066.807,315.064,1068.138,312.396,1068.924z"/>
		<path style="fill:#4E8373;" d="M440.207,1075.347c-6.505,10.605-15.335,19.593-25.823,26.285
			c-9.437,6.278-20.489,9.692-31.823,9.828c-6.112,0.032-12.153-1.311-17.676-3.929c-5.465-2.53-10.124-6.519-13.465-11.529
			c-3.554-5.439-5.354-11.838-5.157-18.332c0.275-13.172,3.555-26.107,9.591-37.818c6.775-13.663,15.737-26.128,26.531-36.902
			c0.933-0.908,2.044-1.612,3.263-2.069c1.185-0.355,2.419-0.52,3.656-0.488c1.17,0.016,2.319,0.306,3.357,0.845
			c1.086,0.594,1.628,1.287,1.627,2.077c-0.064,0.707-0.267,1.395-0.596,2.024c-0.396,0.839-0.644,1.382-0.793,1.629
			c0.844-0.021,1.686-0.103,2.519-0.243c1.915-0.251,3.848-0.347,5.779-0.287c4.568,0.165,9.112,0.734,13.58,1.701
			c4.282,0.706,8.483,1.838,12.54,3.378c6.72,2.765,12.616,7.214,17.118,12.918c3.755,4.818,5.812,10.743,5.851,16.851
			C450.197,1053.36,446.704,1065.167,440.207,1075.347z M438.206,1028.572c-3.638-4.614-8.392-8.226-13.813-10.492
			c-4.06-1.631-8.416-2.395-12.789-2.243c-1.63-0.003-3.803-0.006-6.569,0.335l-6.421-0.01c-5.532-0.009-8.296-1.149-8.292-3.47
			c-0.076-0.755-0.075-1.517,0.004-2.272c0.035-0.477,0.153-0.945,0.348-1.382c-2.154-0.102-4.263,0.639-5.881,2.065
			c-9.023,9.114-16.437,19.69-21.929,31.279c-4.916,10.084-7.563,21.122-7.755,32.338c-0.751,7.854,1.918,15.652,7.326,21.397
			c5.618,4.712,12.82,7.107,20.141,6.699c10.201,0.033,20.209-2.773,28.906-8.104c9.169-5.388,16.946-12.854,22.704-21.795
			c5.548-8.288,8.551-18.018,8.638-27.991C443.098,1039.119,441.478,1033.379,438.206,1028.572z"/>
		<path style="fill:#4E8373;" d="M573.994,1113.883c-1.218,1.011-2.767,1.536-4.349,1.475c-2.272-0.004-4.392-2.427-6.311-7.27
			c-1.941-4.821-3.181-9.896-3.681-15.07c-0.487-4.396-0.916-14.572-1.335-30.624c-0.237-6.668-0.428-10.817-0.524-12.447
			c-7.216,17.944-16.386,35.04-27.343,50.977c-10.198,14.801-19.79,21.948-28.829,21.933c-5.087-0.376-9.558-3.512-11.643-8.168
			c-3.775-6.794-6.306-14.207-7.473-21.891c-1.792-9.959-2.652-20.063-2.57-30.181c0.014-8.89,0.573-18.916,1.628-30.175
			c0.624-8.208,2.009-16.341,4.137-24.293c0.366-1.268,1.047-2.422,1.981-3.355c0.76-0.837,1.835-1.319,2.965-1.329
			c2.865,0.004,4.345,1.143,4.341,3.316c-0.001,0.346-1.094,4.493-3.329,12.441c-2.764,14.645-3.88,29.553-3.329,44.446
			c-0.355,12.014,0.973,24.019,3.945,35.666c2.702,9.29,6.498,13.938,11.486,13.946c4.988,0.008,10.625-3.935,17.305-11.827
			c7.33-8.73,13.749-18.187,19.158-28.221c5.287-9.205,9.732-18.868,13.282-28.872c2.262-9,3.503-18.227,3.698-27.505
			c0.032-2.508,0.317-5.006,0.851-7.457c1.027-1.207,2.571-1.847,4.151-1.722c2.074,0.003,3.107,2.87,3.098,8.5
			c-0.011,6.816-0.031,19.756,0.532,38.772c0.563,19.016,0.89,31.068,1.425,36.156c0.296,3.407,1.141,6.745,2.503,9.882
			c1.048,2.161,2.355,4.186,3.892,6.032c1.38,1.616,2.07,2.654,2.069,3.115C575.778,1111.587,575.134,1112.978,573.994,1113.883z"/>
		<path style="fill:#4E8373;" d="M682.527,1099.335c-4.167,5.868-9.769,10.57-16.271,13.656c-7.415,3.598-15.574,5.395-23.814,5.248
			c-5.998,0.165-11.992-0.459-17.827-1.855c-4.394-1.192-6.564-2.924-6.561-4.949c0.389-2.093,1.253-4.069,2.528-5.775
			c1.684-2.714,2.97-4.095,3.908-4.093s2.074,0.3,2.073,0.892c-0.052,0.453-0.262,0.872-0.595,1.184
			c-0.382,0.362-0.613,0.856-0.644,1.382c-0.001,0.346,0.739,0.89,2.171,1.584c2.133,0.908,4.372,1.543,6.665,1.887
			c3.601,0.65,7.255,0.953,10.914,0.906c6.195,0.141,12.332-1.222,17.885-3.973c4.723-2.236,8.805-5.627,11.869-9.859
			c2.552-3.401,4.006-7.499,4.167-11.748c-0.103-5.19-2.78-9.989-7.141-12.803c-7.13-4.747-14.98-8.312-23.246-10.556
			c-10.268-3.375-18.166-6.153-23.793-8.434c-5-1.877-9.591-4.701-13.52-8.319c-3.377-3.072-5.276-7.445-5.217-12.01
			c0.648-7.54,4.601-14.405,10.796-18.751c7.961-6.623,17.078-11.716,26.892-15.022c9.32-3.614,19.204-5.555,29.199-5.733
			c4.643,0.007,7.111,0.9,7.454,2.778c0.371,2.054,0.55,4.137,0.534,6.224c-0.003,1.729-0.646,2.567-1.93,2.565
			c-0.697-0.033-1.375-0.238-1.975-0.596c-0.74-0.396-1.431-0.694-2.024-0.942c-0.789-0.287-1.598-0.519-2.419-0.695
			c-1.297-0.28-2.624-0.398-3.951-0.352c-7.426,0.273-14.748,1.832-21.64,4.609c-7.812,2.797-15.185,6.694-21.898,11.572
			c-6.181,4.584-9.25,9.024-9.257,13.321c-0.015,3.472,1.519,6.77,4.184,8.995c3.36,2.831,7.205,5.029,11.35,6.488
			c4.936,1.786,11.403,4.018,20.042,6.699c10.018,2.495,19.522,6.722,28.083,12.49c5.636,3.831,9.025,10.19,9.061,17.004
			C688.374,1088.505,686.259,1094.44,682.527,1099.335z"/>
		<path style="fill:#4E8373;" d="M807.778,1005.986c-4.741,2.35-9.708,4.212-14.826,5.558c-6.621,1.916-12.106,3.29-16.354,4.074
			c-6.67,1.274-13.388,2.3-20.156,3.031s-11.115,1.168-13.041,1.264c-0.01,6.717,0.226,13.583,0.462,20.695
			c0.236,7.113,0.376,11.953,0.52,14.818c4.495-0.586,11.214-1.662,20.206-3.278l6.57-1.027c6.115-0.758,11.916-3.136,16.803-6.888
			c1.249-1.203,2.806-2.037,4.498-2.413c0.858,0.031,1.631,0.524,2.023,1.287c0.472,0.811,0.726,1.73,0.737,2.668
			c-0.003,2.124-2.328,4.392-7.024,6.854c-4.867,2.542-10.077,4.364-15.468,5.409c-4.941,1.029-9.881,2.01-15.908,2.938
			l-11.609,1.711c-0.062,14.848,1.959,29.631,6.006,43.917c3.203,1.158,6.509,2.007,9.874,2.534
			c4.137,0.601,8.315,0.872,12.494,0.81c4.907,0.008,9.793-0.649,14.524-1.953c3.961-1.037,7.731-2.699,11.17-4.922
			c2.818-1.971,4.204-3.797,4.207-5.525c0.01-0.929-0.156-1.85-0.49-2.717c-0.381-0.928-0.843-1.821-1.379-2.669l-1.133-1.632
			c-0.416-0.531-0.688-1.161-0.787-1.829c0.002-1.136,1.287-1.727,3.806-1.723c1.918-0.032,3.741,0.828,4.935,2.329
			c1.222,1.362,1.919,3.113,1.968,4.942c-0.195,4.122-1.97,8.01-4.956,10.858c-3.803,3.971-8.497,6.977-13.695,8.77
			c-6.05,2.326-12.49,3.472-18.971,3.378c-5.783,0.069-11.563-0.32-17.285-1.163c-3.766-0.412-7.314-1.969-10.167-4.461
			c-3.419-4.769-5.43-10.402-5.803-16.258c-1.075-7.707-1.997-18.031-2.767-30.972c-2.424,0.628-4.882,1.119-7.361,1.47
			c-2.043,0.33-4.106,0.525-6.175,0.583c-1.248,0.044-2.459-0.421-3.357-1.289c-0.868-0.837-1.334-2.008-1.279-3.212
			c-0.007-0.711,0.129-1.416,0.398-2.074c0.273-0.523,0.761-0.901,1.335-1.035c3.804-0.438,6.57-0.731,8.299-0.827l7.41-0.877
			c-0.405-14.851-0.847-26.952-1.326-36.304c-1.745-0.003-3.128-0.005-4.149-0.007l-7.952-0.012
			c-0.895,0.047-1.769-0.275-2.419-0.893c-0.514-0.492-0.815-1.167-0.837-1.878c0.004-2.815,1.835-4.64,5.54-5.523l5.286-0.782
			c1.391-0.222,2.792-0.369,4.199-0.438c1.798-2.214,4.465-3.542,7.315-3.643c0.445,0.001,0.79,0.396,1.085,1.138
			c0.24,0.514,0.389,1.066,0.442,1.631c7.607-0.35,16.663-1.192,27.168-2.526c6.916-0.944,17.588-3.117,32.015-6.519l6.423-1.373
			c1.136,0.002,1.728,0.694,1.725,2.077C810.548,1003.471,809.755,1005.001,807.778,1005.986z"/>
	</g>
	<g>
		<path style="fill:#4E8373;" d="M949.038,974.951c-0.02-0.031-0.04-0.061-0.062-0.09c-2.047-2.827-4.285-5.562-6.654-8.128
			c-0.734-0.797-1.972-0.864-2.787-0.148c-18.612,16.292-40.489,57.691-72.896,138.06l-3.207-7.532
			c-0.245-0.576-0.746-1.004-1.354-1.157c-0.606-0.153-1.251-0.011-1.739,0.381c-11.795,9.477-12.694,21.373-13.563,32.876
			c-0.404,5.348-0.786,10.398-2.257,15.057c-0.306,0.969,0.163,2.013,1.09,2.428c0.927,0.418,2.018,0.07,2.537-0.804
			c3.493-5.883,4.326-11.794,5.132-17.509c0.207-1.467,0.421-2.983,0.657-4.374c0.32-1.433,0.547-2.908,0.767-4.335
			c0.718-4.666,1.401-9.11,5.248-12.405l3.551,15.015c0.204,0.862,0.95,1.487,1.834,1.537c0.879,0.045,1.695-0.487,1.995-1.321
			c21.704-60.486,44.3-104.928,73.062-143.622c15.289,22.85,20.458,46.111,15.8,71.022c-4.9,26.254-18.411,50.889-41.31,75.315
			c-8.686,9.313-18.183,18.201-27.366,26.798c-3.986,3.731-8.108,7.589-12.113,11.435c-0.721,0.691-0.82,1.81-0.233,2.618
			c0.388,0.534,0.997,0.824,1.619,0.824c0.32,0,0.644-0.077,0.943-0.237c9.231-4.942,56.745-46.85,73.736-78.187
			C972.909,1048.936,972.092,1010.743,949.038,974.951z"/>
		<path style="fill:#4E8373;" d="M927.665,1052.223c-0.48-0.188-1.029,0.021-1.26,0.486l-0.628,1.261
			c-1.01,2.026-2.054,4.122-3.111,6.377c-15.68,35.856-34.436,63.723-57.341,85.192c-10.183,9.583-21.214,18.64-31.882,27.398
			c-7.177,5.893-14.597,11.984-21.686,18.177c-4.516,3.934-8.607,8.464-12.565,12.845c-1.677,1.856-3.41,3.775-5.149,5.619
			c-0.353,0.374-0.364,0.955-0.026,1.343c0.196,0.227,0.474,0.344,0.755,0.344c0.2,0,0.403-0.061,0.578-0.185
			c6.696-4.757,12.623-9.703,18.898-14.94c2.987-2.493,6.076-5.071,9.236-7.61c4.688-3.764,9.604-7.425,14.36-10.965
			c4.958-3.69,10.086-7.508,14.979-11.461c36.308-29.066,62.394-68.027,75.438-112.669
			C928.406,1052.938,928.147,1052.412,927.665,1052.223z"/>
	</g>
	<g>
		<g>
			<path style="fill:#4E8373;" d="M174.319,1157.804l-0.059,37.396l-4.838-0.008l0.059-37.396L174.319,1157.804z"/>
			<path style="fill:#4E8373;" d="M232.083,1157.894l4.417,0.007l15.384,26.717l0.042-26.692l4.862,0.008l-0.059,37.396l-4.23-0.007
				l-15.594-27.043l-0.042,27.019l-4.838-0.007L232.083,1157.894z"/>
			<path style="fill:#4E8373;" d="M325.297,1162.879l-0.051,32.559l-4.862-0.008l0.051-32.559l-8.718-0.014l0.008-4.838
				l22.298,0.035l-0.008,4.838L325.297,1162.879z"/>
			<path style="fill:#4E8373;" d="M409.106,1158.172l-0.008,4.838l-15.31-0.023l-0.018,11.43l15.31,0.023l-0.008,4.839l-15.31-0.024
				l-0.018,11.43l15.31,0.023l-0.008,4.861l-20.148-0.031l0.059-37.396L409.106,1158.172z"/>
			<path style="fill:#4E8373;" d="M475.011,1183.705l-4.417-0.007l-0.019,11.967l-4.838-0.008l0.059-37.396l10.611,0.017
				c3.007,0.409,5.545,1.652,7.614,3.728c2.474,2.497,3.707,5.491,3.702,8.981c-0.006,3.521-1.249,6.527-3.73,9.017
				c-1.717,1.711-3.027,2.676-3.931,2.892l8.277,12.798l-5.867-0.009L475.011,1183.705z M470.626,1163.13l-0.024,15.707l4.417,0.007
				c2.15,0.003,3.994-0.761,5.531-2.294c1.537-1.532,2.308-3.389,2.312-5.571c0.003-2.166-0.762-4.013-2.294-5.543
				c-1.532-1.529-3.374-2.296-5.524-2.299L470.626,1163.13z"/>
			<path style="fill:#4E8373;" d="M548.73,1158.389l-0.058,37.397l-4.838-0.008l0.058-37.396L548.73,1158.389z"/>
			<path style="fill:#4E8373;" d="M638.579,1163.649c3.733,3.745,5.597,8.26,5.589,13.542c-0.009,5.282-1.886,9.79-5.631,13.524
				c-3.746,3.733-8.26,5.596-13.542,5.588c-5.282-0.009-9.791-1.886-13.524-5.631c-3.734-3.746-5.597-8.259-5.588-13.541
				c0.008-5.283,1.884-9.791,5.63-13.525c3.745-3.733,8.26-5.596,13.542-5.588C630.337,1158.027,634.845,1159.903,638.579,1163.649z
				 M625.047,1162.903c-3.942-0.006-7.307,1.379-10.092,4.156c-2.786,2.777-4.182,6.138-4.188,10.08
				c-0.007,3.942,1.383,7.31,4.167,10.103c2.785,2.794,6.142,4.194,10.068,4.2c3.941,0.006,7.306-1.383,10.091-4.169
				c2.786-2.784,4.183-6.147,4.189-10.09c0.006-3.942-1.381-7.307-4.157-10.092C632.349,1164.305,628.988,1162.909,625.047,1162.903
				z"/>
			<path style="fill:#4E8373;" d="M710.125,1184.073l-4.418-0.007l-0.019,11.966l-4.838-0.008l0.058-37.396l10.611,0.017
				c3.007,0.41,5.545,1.652,7.614,3.729c2.474,2.497,3.708,5.49,3.702,8.98c-0.006,3.522-1.248,6.527-3.729,9.017
				c-1.718,1.712-3.028,2.676-3.932,2.893l8.277,12.797l-5.866-0.009L710.125,1184.073z M705.739,1163.497l-0.025,15.707
				l4.418,0.007c2.15,0.004,3.995-0.761,5.531-2.294c1.538-1.532,2.309-3.389,2.312-5.571c0.004-2.165-0.761-4.013-2.294-5.542
				c-1.532-1.53-3.373-2.296-5.523-2.3L705.739,1163.497z"/>
		</g>
	</g>
</g>
<text transform="matrix(1 0 0 1 219.8704 -484.0115)" style="fill:#4E8373; font-family:'LindseyW01-Regular'; font-size:301.9435;">AHI</text>
<g>
	<path style="fill:#4E8373;" d="M195.759-772.581c-0.029-0.045-0.059-0.089-0.09-0.131c-2.992-4.132-6.265-8.13-9.728-11.883
		c-1.074-1.165-2.882-1.263-4.075-0.217c-27.21,23.817-59.192,84.34-106.569,201.832l-4.688-11.012
		c-0.358-0.842-1.091-1.468-1.979-1.691c-0.887-0.224-1.829-0.016-2.543,0.557c-17.243,13.855-18.558,31.245-19.829,48.063
		c-0.591,7.818-1.149,15.202-3.299,22.012c-0.447,1.416,0.238,2.942,1.593,3.549c1.355,0.611,2.95,0.103,3.709-1.175
		c5.107-8.6,6.325-17.242,7.502-25.596c0.303-2.144,0.615-4.361,0.961-6.394c0.468-2.094,0.799-4.252,1.121-6.337
		c1.049-6.821,2.049-13.319,7.672-18.135l5.191,21.95c0.298,1.261,1.389,2.174,2.681,2.247c1.285,0.066,2.478-0.712,2.917-1.932
		c31.73-88.426,64.763-153.397,106.81-209.964c22.351,33.405,29.908,67.411,23.098,103.829
		c-7.164,38.382-26.916,74.395-60.391,110.105c-12.698,13.614-26.582,26.609-40.007,39.176
		c-5.828,5.455-11.854,11.094-17.709,16.716c-1.054,1.011-1.199,2.645-0.341,3.828c0.567,0.781,1.458,1.205,2.367,1.205
		c0.468,0,0.941-0.113,1.379-0.347c13.496-7.225,82.957-68.49,107.797-114.303C230.657-664.422,229.462-720.256,195.759-772.581z"/>
	<path style="fill:#95B5AB;" d="M164.514-659.615c-0.702-0.276-1.505,0.031-1.842,0.71l-0.918,1.843
		c-1.476,2.962-3.002,6.026-4.549,9.323c-22.922,52.419-50.342,93.157-83.828,124.544c-14.886,14.01-31.013,27.25-46.609,40.054
		c-10.492,8.615-21.339,17.52-31.703,26.573c-6.601,5.751-12.583,12.374-18.37,18.778c-2.451,2.714-4.985,5.519-7.528,8.215
		c-0.515,0.547-0.533,1.396-0.039,1.963c0.287,0.331,0.692,0.503,1.104,0.503c0.293,0,0.59-0.089,0.845-0.27
		c9.789-6.954,18.454-14.185,27.628-21.842c4.367-3.645,8.883-7.414,13.503-11.126c6.853-5.502,14.041-10.854,20.994-16.03
		c7.248-5.395,14.745-10.976,21.897-16.755c53.079-42.493,91.214-99.451,110.284-164.714
		C165.597-658.571,165.219-659.34,164.514-659.615z"/>
</g>
</svg>
