Generator: Adobe Illustrator 18.1.1, SVG Export Plug-In 
<svg version="1.1"
	 xmlns="http://www.w3.org/2000/svg" xmlns:xlink="http://www.w3.org/1999/xlink" xmlns:a="http://ns.adobe.com/AdobeSVGViewerExtensions/3.0/"
	 x="0px" y="0px" width="884.6px" height="245.2px" viewBox="0 0 884.6 245.2" enable-background="new 0 0 884.6 245.2">
<!-- <defs>
</defs> -->
<g>
	<g>
		<path fill="#95B5AB" d="M84,95.9c-0.3,0.7-0.8,1.3-1.4,1.7c-1.3,0.8-2.7,1.3-4.2,1.5c-2.2,0.4-3.6,0.7-4.3,0.8
			c0.7,3.7,1.1,5.5,1.1,5.4c0.7,2.4,1.4,5.7,2.2,9.9c1.7,9.9,3.5,18.2,5.3,25c0.3,1.3,0.5,2.6,0.7,3.9c0,0.9-0.4,1.9-1.1,2.5
			c-0.8,0.7-1.7,1.1-2.8,1c-1.1-0.1-2-0.6-2.6-1.5c-0.6-0.8-1.2-1.7-1.6-2.7c-0.9-3.3-1.7-7-2.4-11c-0.7-4.1-1.6-8.9-2.5-14.8
			c-0.4-2.5-1-5.6-1.9-9.3c-0.9-3.7-1.4-6.2-1.7-7.3c-5.7,0.7-15.5,2.3-29.6,4.6l-8.4,1.4l-3.1,8.5L21.6,127
			c-3.3,10.5-5.7,18.6-7.3,24.3c-0.3,1.3-0.9,2.5-1.7,3.4c-0.8,0.9-2,1.4-3.2,1.4c-1,0-1.9-0.3-2.7-0.9c-0.7-0.6-1.1-1.5-1.1-2.5
			c0.3-2.3,0.9-4.6,1.7-6.7c1.2-3.5,1.9-5.5,2.1-6.2s1.1-3.2,2.3-6.7s2.9-8.3,5-13.7s3.3-8.9,4-10.7c-4.9,1.2-8.6,2.1-11,2.7
			c-2.2,0.7-4.5,1.1-6.8,1.4c-1,0.1-1.9-0.4-2.4-1.2c-0.4-0.8-0.6-1.7-0.5-2.5c-0.1-0.9,0.2-1.8,0.9-2.4c0.9-0.6,1.8-1,2.9-1.2
			c3.7-0.9,7.6-1.8,11.7-2.6c4.2-0.8,6.9-1.5,8.4-1.7c1-2.8,1.7-5.2,2.2-7.1c0.5-1.9,0.9-2.8,1.5-4.9c0.6-2.1,1.3-4.2,2.1-7l2.2-7.4
			C35.7,62.3,37.8,55,38.4,53c0.3-1,0.7-2,1.2-3c0.3-0.7,1-1.2,1.8-1.2c1.8,0,3.6,0.3,5.2,0.9c0.3-0.4,0.7-0.8,0.9-1.2
			c0.4-0.5,0.9-1,1.4-1.3c0.7-0.3,1.4-0.4,2.1-0.4c1.7,0,3.8,2,6,6c2.5,4.5,4.7,9.2,6.5,14c1.3,3.2,2.9,8,4.9,14.3
			c2.1,6.3,3.2,10.5,3.7,12.6c1.3-0.1,2.5-0.4,3.7-0.8l2-0.6c0.6-0.3,1.1-0.6,1.6-1c0.5-0.4,1-0.8,1.6-1.1c0.5-0.3,1.1-0.3,1.6,0
			c1.3,0.7,2.1,2.1,1.9,3.6C84.6,94.5,84.4,95.2,84,95.9z M62.5,83.8c-1.6-5.5-3-9.9-4.3-13.5c-1.5-3.8-3.2-7.5-5.2-11
			c-1.2-2.7-3-5.1-5.2-7.1l-1.6,3.8c-1.6,3.2-3,6.5-4.2,9.9c-2.3,6.9-6,18.4-11.1,34.6l16.9-2.9l13.9-2.2l3.9-0.5
			c-0.4-1.7-1.4-5.3-3-10.9L62.5,83.8z"/>
		<path fill="#4E8373" d="M230.1,102.8c-2.4,0.8-5,1.2-7.5,1.3l-5.8,0c0,3.6-0.4,7.6-0.7,12c-0.4,4.4-0.7,8-0.9,10.9l-0.5,5.4
			l-0.4,5.5l-1.1,13.3c-0.5,5.9-2.4,8.8-5.7,8.8c-1.3,0-2.5-1.5-3.7-4.4c-1.1-2.3-1.7-4.7-1.8-7.2c0.2-1,0.7-2,1.4-2.8
			c1-1.6,1.6-3.3,1.7-5.2c0.4-3.2,1-8.6,1.6-16c0.6-7.5,1-13.8,1.2-18.9c-4.5,0.3-9.3,0.8-14.5,1.5l-15.6,1.6
			c-8.1,0.8-14.4,1.3-19.1,1.5c-0.5,7.7-1,16.9-1.6,27.9c-0.6,10.9-1,17.9-1,20.3c0,1.2,0.2,2.4,0.4,3.6c0.3,1.1,0.4,2.3,0.4,3.5
			c0,1-0.8,2.1-2.3,3.1c-1.1,0.9-2.4,1.4-3.8,1.6c-1.1,0-2.1-0.7-2.8-2.3c-0.8-1.5-1.1-3.2-1.1-4.9c0-1,0-2.7,0.4-4.9
			c0.3-2.2,0.4-4.4,0.5-6.1c0.5-3.2,0.7-5.7,0.9-7.7c0.6-6.8,1.1-13.3,1.4-19.8c0.4-6.4,0.6-10.6,0.7-12.8
			c-6.8,1.2-13.7,1.8-20.6,1.8c-2,0-4-0.5-5.6-1.6c-1.6-1.1-2.5-3-2.3-4.9c-0.1-1.2,0.3-2.4,1.1-3.4c1.3-0.9,2.9-1.3,4.5-1.1l9.2,0
			c6,0.3,10.9,0.4,14.5,0.4c0.6-9.9,0.9-17.6,0.9-23.5c0-13.4,0-25.4-0.3-36l0-6.4c0-1.6,0.7-3.2,2-4.2c1.3-1.1,2.9-1.6,4.6-1.6
			c1.3,0,2.1,1,2.6,2.9c0.5,2.2,0.7,4.4,0.7,6.6c0,2.6-0.3,7.8-0.9,15.6c-0.7,13.4-1.1,20.4-1.1,21.2l-0.9,24.7
			c9.9,0,26.1-1.7,49.4-4.4c0.4-3.3,1.3-12.1,2.5-26.3c0.5-7.5,0.9-13,1.2-16.4l1.1-13.5c1.5-17.1,2.2-27.5,2.2-31.9
			c0-1.4,0.6-2.8,1.7-3.6c1.1-0.9,2.5-1.4,4-1.4c2.1,0,3.1,2,3.1,6c0,2.6-0.6,9.3-1.8,20.2c-1.3,14.3-2,22.3-2.1,23.9
			c-0.7,8.8-1.4,17.3-2,25.4s-1.1,13.5-1.3,16.3c1.9-0.3,3.8-0.8,5.5-1.6c1.6-0.6,3.3-0.9,4.9-1c1.5,0.2,2.9,0.9,3.9,2.1
			c1.5,1.4,2.3,2.4,2.3,3C234.1,100.7,232.7,102,230.1,102.8z"/>
		<path fill="#4E8373" d="M357.9,109.3c-6.5,10.6-15.3,19.6-25.8,26.3c-9.4,6.3-20.5,9.7-31.8,9.8c-6.1,0-12.2-1.3-17.7-3.9
			c-5.5-2.5-10.1-6.5-13.5-11.5c-3.6-5.4-5.4-11.8-5.2-18.3c0.3-13.2,3.6-26.1,9.6-37.8c6.8-13.7,15.7-26.1,26.5-36.9
			c0.9-0.9,2-1.6,3.3-2.1c1.2-0.4,2.4-0.5,3.7-0.5c1.2,0,2.3,0.3,3.4,0.8c1.1,0.6,1.6,1.3,1.6,2.1c-0.1,0.7-0.3,1.4-0.6,2
			c-0.4,0.8-0.6,1.4-0.8,1.6c0.8,0,1.7-0.1,2.5-0.2c1.9-0.3,3.8-0.3,5.8-0.3c4.6,0.2,9.1,0.7,13.6,1.7c4.3,0.7,8.5,1.8,12.5,3.4
			c6.7,2.8,12.6,7.2,17.1,12.9c3.8,4.8,5.8,10.7,5.9,16.9C367.9,87.3,364.4,99.1,357.9,109.3z M355.9,62.5
			c-3.6-4.6-8.4-8.2-13.8-10.5c-4.1-1.6-8.4-2.4-12.8-2.2c-1.6,0-3.8,0-6.6,0.3l-6.4,0c-5.5,0-8.3-1.1-8.3-3.5
			c-0.1-0.8-0.1-1.5,0-2.3c0-0.5,0.2-0.9,0.3-1.4c-2.2-0.1-4.3,0.6-5.9,2.1c-9,9.1-16.4,19.7-21.9,31.3c-4.9,10.1-7.6,21.1-7.8,32.3
			c-0.8,7.9,1.9,15.7,7.3,21.4c5.6,4.7,12.8,7.1,20.1,6.7c10.2,0,20.2-2.8,28.9-8.1c9.2-5.4,16.9-12.9,22.7-21.8
			c5.5-8.3,8.6-18,8.6-28C360.8,73,359.2,67.3,355.9,62.5z"/>
		<path fill="#4E8373" d="M491.7,147.8c-1.2,1-2.8,1.5-4.3,1.5c-2.3,0-4.4-2.4-6.3-7.3c-1.9-4.8-3.2-9.9-3.7-15.1
			c-0.5-4.4-0.9-14.6-1.3-30.6c-0.2-6.7-0.4-10.8-0.5-12.4c-7.2,17.9-16.4,35-27.3,51c-10.2,14.8-19.8,21.9-28.8,21.9
			c-5.1-0.4-9.6-3.5-11.6-8.2c-3.8-6.8-6.3-14.2-7.5-21.9c-1.8-10-2.7-20.1-2.6-30.2c0-8.9,0.6-18.9,1.6-30.2
			c0.6-8.2,2-16.3,4.1-24.3c0.4-1.3,1-2.4,2-3.4c0.8-0.8,1.8-1.3,3-1.3c2.9,0,4.3,1.1,4.3,3.3c0,0.3-1.1,4.5-3.3,12.4
			c-2.8,14.6-3.9,29.6-3.3,44.4c-0.4,12,1,24,3.9,35.7c2.7,9.3,6.5,13.9,11.5,13.9c5,0,10.6-3.9,17.3-11.8
			c7.3-8.7,13.7-18.2,19.2-28.2c5.3-9.2,9.7-18.9,13.3-28.9c2.3-9,3.5-18.2,3.7-27.5c0-2.5,0.3-5,0.9-7.5c1-1.2,2.6-1.8,4.2-1.7
			c2.1,0,3.1,2.9,3.1,8.5c0,6.8,0,19.8,0.5,38.8s0.9,31.1,1.4,36.2c0.3,3.4,1.1,6.7,2.5,9.9c1,2.2,2.4,4.2,3.9,6
			c1.4,1.6,2.1,2.7,2.1,3.1C493.5,145.5,492.8,146.9,491.7,147.8z"/>
		<path fill="#4E8373" d="M600.2,133.2c-4.2,5.9-9.8,10.6-16.3,13.7c-7.4,3.6-15.6,5.4-23.8,5.2c-6,0.2-12-0.5-17.8-1.9
			c-4.4-1.2-6.6-2.9-6.6-4.9c0.4-2.1,1.3-4.1,2.5-5.8c1.7-2.7,3-4.1,3.9-4.1c0.9,0,2.1,0.3,2.1,0.9c-0.1,0.5-0.3,0.9-0.6,1.2
			c-0.4,0.4-0.6,0.9-0.6,1.4c0,0.3,0.7,0.9,2.2,1.6c2.1,0.9,4.4,1.5,6.7,1.9c3.6,0.7,7.3,1,10.9,0.9c6.2,0.1,12.3-1.2,17.9-4
			c4.7-2.2,8.8-5.6,11.9-9.9c2.6-3.4,4-7.5,4.2-11.7c-0.1-5.2-2.8-10-7.1-12.8c-7.1-4.7-15-8.3-23.2-10.6
			c-10.3-3.4-18.2-6.2-23.8-8.4c-5-1.9-9.6-4.7-13.5-8.3c-3.4-3.1-5.3-7.4-5.2-12c0.6-7.5,4.6-14.4,10.8-18.8
			c8-6.6,17.1-11.7,26.9-15c9.3-3.6,19.2-5.6,29.2-5.7c4.6,0,7.1,0.9,7.5,2.8c0.4,2.1,0.5,4.1,0.5,6.2c0,1.7-0.6,2.6-1.9,2.6
			c-0.7,0-1.4-0.2-2-0.6c-0.7-0.4-1.4-0.7-2-0.9c-0.8-0.3-1.6-0.5-2.4-0.7c-1.3-0.3-2.6-0.4-4-0.4c-7.4,0.3-14.7,1.8-21.6,4.6
			c-7.8,2.8-15.2,6.7-21.9,11.6c-6.2,4.6-9.3,9-9.3,13.3c0,3.5,1.5,6.8,4.2,9c3.4,2.8,7.2,5,11.3,6.5c4.9,1.8,11.4,4,20,6.7
			c10,2.5,19.5,6.7,28.1,12.5c5.6,3.8,9,10.2,9.1,17C606,122.4,603.9,128.4,600.2,133.2z"/>
		<path fill="#4E8373" d="M725.5,39.9c-4.7,2.3-9.7,4.2-14.8,5.6c-6.6,1.9-12.1,3.3-16.4,4.1c-6.7,1.3-13.4,2.3-20.2,3
			s-11.1,1.2-13,1.3c0,6.7,0.2,13.6,0.5,20.7s0.4,12,0.5,14.8c4.5-0.6,11.2-1.7,20.2-3.3l6.6-1c6.1-0.8,11.9-3.1,16.8-6.9
			c1.2-1.2,2.8-2,4.5-2.4c0.9,0,1.6,0.5,2,1.3c0.5,0.8,0.7,1.7,0.7,2.7c0,2.1-2.3,4.4-7,6.9c-4.9,2.5-10.1,4.4-15.5,5.4
			c-4.9,1-9.9,2-15.9,2.9l-11.6,1.7c-0.1,14.8,2,29.6,6,43.9c3.2,1.2,6.5,2,9.9,2.5c4.1,0.6,8.3,0.9,12.5,0.8c4.9,0,9.8-0.6,14.5-2
			c4-1,7.7-2.7,11.2-4.9c2.8-2,4.2-3.8,4.2-5.5c0-0.9-0.2-1.9-0.5-2.7c-0.4-0.9-0.8-1.8-1.4-2.7l-1.1-1.6c-0.4-0.5-0.7-1.2-0.8-1.8
			c0-1.1,1.3-1.7,3.8-1.7c1.9,0,3.7,0.8,4.9,2.3c1.2,1.4,1.9,3.1,2,4.9c-0.2,4.1-2,8-5,10.9c-3.8,4-8.5,7-13.7,8.8
			c-6.1,2.3-12.5,3.5-19,3.4c-5.8,0.1-11.6-0.3-17.3-1.2c-3.8-0.4-7.3-2-10.2-4.5c-3.4-4.8-5.4-10.4-5.8-16.3c-1.1-7.7-2-18-2.8-31
			c-2.4,0.6-4.9,1.1-7.4,1.5c-2,0.3-4.1,0.5-6.2,0.6c-1.2,0-2.5-0.4-3.4-1.3c-0.9-0.8-1.3-2-1.3-3.2c0-0.7,0.1-1.4,0.4-2.1
			c0.3-0.5,0.8-0.9,1.3-1c3.8-0.4,6.6-0.7,8.3-0.8l7.4-0.9c-0.4-14.9-0.8-27-1.3-36.3c-1.7,0-3.1,0-4.1,0l-8,0
			c-0.9,0-1.8-0.3-2.4-0.9c-0.5-0.5-0.8-1.2-0.8-1.9c0-2.8,1.8-4.6,5.5-5.5l5.3-0.8c1.4-0.2,2.8-0.4,4.2-0.4
			c1.8-2.2,4.5-3.5,7.3-3.6c0.4,0,0.8,0.4,1.1,1.1c0.2,0.5,0.4,1.1,0.4,1.6c7.6-0.4,16.7-1.2,27.2-2.5c6.9-0.9,17.6-3.1,32-6.5
			l6.4-1.4c1.1,0,1.7,0.7,1.7,2.1C728.2,37.4,727.4,38.9,725.5,39.9z"/>
	</g>
	<g>
		<path fill="#4E8373" d="M866.7,8.9C866.7,8.8,866.7,8.8,866.7,8.9c-2.1-2.9-4.3-5.7-6.7-8.2c-0.7-0.8-2-0.9-2.8-0.1
			c-18.6,16.3-40.5,57.7-72.9,138.1l-3.2-7.5c-0.2-0.6-0.7-1-1.4-1.2c-0.6-0.2-1.3,0-1.7,0.4c-11.8,9.5-12.7,21.4-13.6,32.9
			c-0.4,5.3-0.8,10.4-2.3,15.1c-0.3,1,0.2,2,1.1,2.4c0.9,0.4,2,0.1,2.5-0.8c3.5-5.9,4.3-11.8,5.1-17.5c0.2-1.5,0.4-3,0.7-4.4
			c0.3-1.4,0.5-2.9,0.8-4.3c0.7-4.7,1.4-9.1,5.2-12.4l3.6,15c0.2,0.9,1,1.5,1.8,1.5c0.9,0,1.7-0.5,2-1.3
			c21.7-60.5,44.3-104.9,73.1-143.6c15.3,22.9,20.5,46.1,15.8,71c-4.9,26.3-18.4,50.9-41.3,75.3c-8.7,9.3-18.2,18.2-27.4,26.8
			c-4,3.7-8.1,7.6-12.1,11.4c-0.7,0.7-0.8,1.8-0.2,2.6c0.4,0.5,1,0.8,1.6,0.8c0.3,0,0.6-0.1,0.9-0.2c9.2-4.9,56.7-46.8,73.7-78.2
			C890.6,82.8,889.8,44.7,866.7,8.9z"/>
		<path fill="#95B5AB" d="M845.3,86.1c-0.5-0.2-1,0-1.3,0.5l-0.6,1.3c-1,2-2.1,4.1-3.1,6.4c-15.7,35.9-34.4,63.7-57.3,85.2
			c-10.2,9.6-21.2,18.6-31.9,27.4c-7.2,5.9-14.6,12-21.7,18.2c-4.5,3.9-8.6,8.5-12.6,12.8c-1.7,1.9-3.4,3.8-5.1,5.6
			c-0.4,0.4-0.4,1,0,1.3c0.2,0.2,0.5,0.3,0.8,0.3c0.2,0,0.4-0.1,0.6-0.2c6.7-4.8,12.6-9.7,18.9-14.9c3-2.5,6.1-5.1,9.2-7.6
			c4.7-3.8,9.6-7.4,14.4-11c5-3.7,10.1-7.5,15-11.5c36.3-29.1,62.4-68,75.4-112.7C846.1,86.8,845.8,86.3,845.3,86.1z"/>
	</g>
	<g>
		<g>
			<path fill="#95B5AB" d="M92,191.7l-0.1,37.4l-4.8,0l0.1-37.4L92,191.7z"/>
			<path fill="#95B5AB" d="M149.8,191.8l4.4,0l15.4,26.7l0-26.7l4.9,0l-0.1,37.4l-4.2,0l-15.6-27l0,27l-4.8,0L149.8,191.8z"/>
			<path fill="#95B5AB" d="M243,196.8l-0.1,32.6l-4.9,0l0.1-32.6l-8.7,0l0-4.8l22.3,0l0,4.8L243,196.8z"/>
			<path fill="#95B5AB" d="M326.8,192.1l0,4.8l-15.3,0l0,11.4l15.3,0l0,4.8l-15.3,0l0,11.4l15.3,0l0,4.9l-20.1,0l0.1-37.4
				L326.8,192.1z"/>
			<path fill="#95B5AB" d="M392.7,217.6l-4.4,0l0,12l-4.8,0l0.1-37.4l10.6,0c3,0.4,5.5,1.7,7.6,3.7c2.5,2.5,3.7,5.5,3.7,9
				c0,3.5-1.2,6.5-3.7,9c-1.7,1.7-3,2.7-3.9,2.9l8.3,12.8l-5.9,0L392.7,217.6z M388.3,197l0,15.7l4.4,0c2.2,0,4-0.8,5.5-2.3
				c1.5-1.5,2.3-3.4,2.3-5.6c0-2.2-0.8-4-2.3-5.5c-1.5-1.5-3.4-2.3-5.5-2.3L388.3,197z"/>
			<path fill="#95B5AB" d="M466.4,192.3l-0.1,37.4l-4.8,0l0.1-37.4L466.4,192.3z"/>
			<path fill="#95B5AB" d="M556.3,197.6c3.7,3.7,5.6,8.3,5.6,13.5c0,5.3-1.9,9.8-5.6,13.5c-3.7,3.7-8.3,5.6-13.5,5.6
				c-5.3,0-9.8-1.9-13.5-5.6c-3.7-3.7-5.6-8.3-5.6-13.5c0-5.3,1.9-9.8,5.6-13.5c3.7-3.7,8.3-5.6,13.5-5.6
				C548,191.9,552.5,193.8,556.3,197.6z M542.7,196.8c-3.9,0-7.3,1.4-10.1,4.2c-2.8,2.8-4.2,6.1-4.2,10.1c0,3.9,1.4,7.3,4.2,10.1
				c2.8,2.8,6.1,4.2,10.1,4.2c3.9,0,7.3-1.4,10.1-4.2c2.8-2.8,4.2-6.1,4.2-10.1c0-3.9-1.4-7.3-4.2-10.1
				C550,198.2,546.7,196.8,542.7,196.8z"/>
			<path fill="#95B5AB" d="M627.8,218l-4.4,0l0,12l-4.8,0l0.1-37.4l10.6,0c3,0.4,5.5,1.7,7.6,3.7c2.5,2.5,3.7,5.5,3.7,9
				c0,3.5-1.2,6.5-3.7,9c-1.7,1.7-3,2.7-3.9,2.9l8.3,12.8l-5.9,0L627.8,218z M623.4,197.4l0,15.7l4.4,0c2.2,0,4-0.8,5.5-2.3
				c1.5-1.5,2.3-3.4,2.3-5.6c0-2.2-0.8-4-2.3-5.5c-1.5-1.5-3.4-2.3-5.5-2.3L623.4,197.4z"/>
		</g>
	</g>
</g>
</svg>
